<?xml version="1.0" encoding="UTF-8" standalone="no"?>
<!-- Created with Inkscape (http://www.inkscape.org/) -->

<svg
   xmlns:dc="http://purl.org/dc/elements/1.1/"
   xmlns:cc="http://creativecommons.org/ns#"
   xmlns:rdf="http://www.w3.org/1999/02/22-rdf-syntax-ns#"
   xmlns:svg="http://www.w3.org/2000/svg"
   xmlns="http://www.w3.org/2000/svg"
   xmlns:sodipodi="http://sodipodi.sourceforge.net/DTD/sodipodi-0.dtd"
   xmlns:inkscape="http://www.inkscape.org/namespaces/inkscape"
   width="48.890762mm"
   height="27.868298mm"
   viewBox="0 0 48.890762 27.868297"
   version="1.1"
   id="svg1037"
   inkscape:version="0.92.2 (5c3e80d, 2017-08-06)"
   sodipodi:docname="play.svg">
  <defs
     id="defs1031" />
  <sodipodi:namedview
     id="base"
     pagecolor="#ffffff"
     bordercolor="#666666"
     borderopacity="1.0"
     inkscape:pageopacity="0.0"
     inkscape:pageshadow="2"
     inkscape:zoom="3.959798"
     inkscape:cx="67.705389"
     inkscape:cy="41.910301"
     inkscape:document-units="mm"
     inkscape:current-layer="layer1"
     showgrid="false"
     fit-margin-top="0"
     fit-margin-left="0"
     fit-margin-right="0"
     fit-margin-bottom="0"
     inkscape:window-width="1366"
     inkscape:window-height="704"
     inkscape:window-x="0"
     inkscape:window-y="27"
     inkscape:window-maximized="1" />
  <metadata
     id="metadata1034">
    <rdf:RDF>
      <cc:Work
         rdf:about="">
        <dc:format>image/svg+xml</dc:format>
        <dc:type
           rdf:resource="http://purl.org/dc/dcmitype/StillImage" />
        <dc:title />
      </cc:Work>
    </rdf:RDF>
  </metadata>
  <g
     inkscape:label="Layer 1"
     inkscape:groupmode="layer"
     id="layer1"
     transform="translate(122.11598,-59.266149)">
    <g
       transform="matrix(0.26458333,0,0,0.26458333,-120.35527,57.204251)"
       id="g927">
      <g
         id="g817">
        <path
           inkscape:connector-curvature="0"
           style="fill:#ffd00b"
           d="m 175.415,74.633 c 0,6.702 -5.434,12.137 -12.136,12.137 H 7.6349999 c -6.70099998,0 -12.135,-5.435 -12.135,-12.137 V 45.555 c 0,-6.703 5.43400002,-12.136 12.135,-12.136 H 163.279 c 6.702,0 12.136,5.433 12.136,12.136 z"
           id="path815"
           sodipodi:nodetypes="sssssssss" />
      </g>
      <g
         id="g821">
        <path
           inkscape:connector-curvature="0"
           style="fill:#ff9c0d"
           d="M 163.279,33.419 H 7.6349999 c -6.70099998,0 -12.135,5.433 -12.135,12.136 v 21.828 c 0,6.702 5.43400002,12.137 12.135,12.137 H 163.279 c 6.702,0 12.136,-5.435 12.136,-12.137 V 45.555 c 0,-6.703 -5.434,-12.136 -12.136,-12.136 z"
           id="path819"
           sodipodi:nodetypes="sssssssss" />
      </g>
      <g
         id="g825" />
      <g
         id="g847" />
      <g
         id="g851" />
      <g
         id="g855" />
      <g
         id="g925">
        <g
           id="g889">
          <g
             id="g865">
            <g
               id="g859" />
            <g
               id="g863" />
          </g>
          <g
             id="g887">
            <g
               id="g875">
              <g
                 id="g869" />
              <g
                 id="g873" />
            </g>
            <g
               id="g885">
              <g
                 id="g879" />
              <g
                 id="g883" />
            </g>
          </g>
        </g>
        <g
           id="g923">
          <g
             id="g899">
            <g
               id="g893" />
            <g
               id="g897" />
          </g>
          <g
             id="g921">
            <g
               id="g909">
              <g
                 id="g903" />
              <g
                 id="g907" />
            </g>
            <g
               id="g919">
              <g
                 id="g913" />
              <g
                 id="g917">
                <g
                   id="g902"
                   transform="translate(21.999802)">
                  <path
                     id="path857"
                     d="m 63.46,11.785 c -0.829,0 -1.5,-0.671 -1.5,-1.5 V 9.293 c 0,-0.829 0.671,-1.5 1.5,-1.5 0.829,0 1.5,0.671 1.5,1.5 v 0.992 c 0,0.829 -0.671,1.5 -1.5,1.5 z"
                     style="fill:#33363a;fill-opacity:1"
                     inkscape:connector-curvature="0" />
                  <path
                     id="path861"
                     d="m 63.459,26.65 v 0 c -0.829,0 -1.5,-0.672 -1.5,-1.5 l 10e-4,-5.824 c 0,-0.828 0.672,-1.5 1.5,-1.5 v 0 c 0.828,0 1.5,0.672 1.5,1.5 l -10e-4,5.824 c 0,0.829 -0.672,1.5 -1.5,1.5 z"
                     style="fill:#33363a;fill-opacity:1"
                     inkscape:connector-curvature="0" />
                  <path
                     id="path867"
                     d="m 36.1,17.119 c -0.381,0 -0.763,-0.145 -1.055,-0.434 l -0.708,-0.701 c -0.589,-0.583 -0.594,-1.532 -0.011,-2.121 0.582,-0.589 1.532,-0.594 2.121,-0.011 l 0.708,0.701 c 0.589,0.583 0.594,1.532 0.011,2.121 -0.293,0.297 -0.68,0.445 -1.066,0.445 z"
                     style="fill:#33363a;fill-opacity:1"
                     inkscape:connector-curvature="0" />
                  <path
                     id="path871"
                     d="m 46.612,27.635 c -0.384,0 -0.768,-0.146 -1.061,-0.44 l -4.123,-4.127 c -0.585,-0.586 -0.585,-1.536 0.001,-2.121 0.586,-0.585 1.536,-0.585 2.121,0.001 l 4.123,4.127 c 0.585,0.586 0.585,1.536 -0.001,2.121 -0.293,0.292 -0.676,0.439 -1.06,0.439 z"
                     style="fill:#33363a;fill-opacity:1"
                     inkscape:connector-curvature="0" />
                  <path
                     id="path877"
                     d="m 90.818,17.123 c -0.384,0 -0.768,-0.146 -1.061,-0.44 -0.585,-0.586 -0.585,-1.536 10e-4,-2.121 l 0.706,-0.705 c 0.585,-0.585 1.536,-0.586 2.121,0.001 0.585,0.586 0.585,1.536 -10e-4,2.121 l -0.706,0.705 c -0.292,0.293 -0.676,0.439 -1.06,0.439 z"
                     style="fill:#33363a;fill-opacity:1"
                     inkscape:connector-curvature="0" />
                  <path
                     id="path881"
                     d="m 80.309,27.636 c -0.383,0 -0.767,-0.146 -1.06,-0.438 -0.586,-0.585 -0.587,-1.535 -10e-4,-2.122 l 4.12,-4.126 c 0.585,-0.585 1.535,-0.588 2.122,-10e-4 0.586,0.585 0.587,1.535 0.001,2.122 l -4.12,4.126 c -0.293,0.292 -0.678,0.439 -1.062,0.439 z"
                     style="fill:#33363a;fill-opacity:1"
                     inkscape:connector-curvature="0" />
                  <path
                     id="path891"
                     d="m 63.455,113.122 c -0.829,0 -1.5,-0.671 -1.5,-1.5 v -0.992 c 0,-0.829 0.671,-1.5 1.5,-1.5 0.829,0 1.5,0.671 1.5,1.5 v 0.992 c 0,0.829 -0.672,1.5 -1.5,1.5 z"
                     style="fill:#33363a;fill-opacity:1"
                     inkscape:connector-curvature="0" />
                  <path
                     id="path895"
                     d="m 63.455,103.089 v 0 c -0.829,0 -1.5,-0.672 -1.5,-1.5 l 0.001,-5.824 c 0,-0.828 0.672,-1.5 1.5,-1.5 v 0 c 0.828,0 1.5,0.672 1.5,1.5 l -0.001,5.824 c 0,0.828 -0.672,1.5 -1.5,1.5 z"
                     style="fill:#33363a;fill-opacity:1"
                     inkscape:connector-curvature="0" />
                  <path
                     id="path901"
                     d="m 91.524,107.497 c -0.381,0 -0.763,-0.145 -1.055,-0.434 l -0.708,-0.701 c -0.589,-0.583 -0.594,-1.532 -0.011,-2.121 0.582,-0.589 1.532,-0.593 2.121,-0.011 l 0.708,0.701 c 0.589,0.583 0.594,1.532 0.011,2.121 -0.293,0.297 -0.68,0.445 -1.066,0.445 z"
                     style="fill:#33363a;fill-opacity:1"
                     inkscape:connector-curvature="0" />
                  <path
                     id="path905"
                     d="m 84.426,100.407 c -0.384,0 -0.768,-0.146 -1.061,-0.44 L 79.242,95.84 c -0.585,-0.586 -0.585,-1.536 10e-4,-2.121 0.586,-0.585 1.535,-0.585 2.121,0.001 l 4.123,4.127 c 0.585,0.586 0.585,1.536 -10e-4,2.121 -0.293,0.293 -0.676,0.439 -1.06,0.439 z"
                     style="fill:#33363a;fill-opacity:1"
                     inkscape:connector-curvature="0" />
                  <path
                     id="path911"
                     d="m 35.391,107.497 c -0.384,0 -0.768,-0.146 -1.061,-0.44 -0.585,-0.586 -0.585,-1.536 0.001,-2.121 l 0.706,-0.705 c 0.585,-0.585 1.536,-0.585 2.121,0.001 0.585,0.586 0.585,1.536 -0.001,2.121 l -0.706,0.705 c -0.292,0.293 -0.676,0.439 -1.06,0.439 z"
                     style="fill:#33363a;fill-opacity:1"
                     inkscape:connector-curvature="0" />
                  <path
                     id="path915"
                     d="m 42.486,100.405 c -0.383,0 -0.767,-0.146 -1.06,-0.438 -0.586,-0.585 -0.587,-1.535 -0.001,-2.122 l 4.12,-4.126 c 0.584,-0.586 1.534,-0.587 2.122,-10e-4 0.586,0.585 0.587,1.535 10e-4,2.122 l -4.12,4.126 c -0.293,0.292 -0.677,0.439 -1.062,0.439 z"
                     style="fill:#33363a;fill-opacity:1"
                     inkscape:connector-curvature="0" />
                </g>
              </g>
            </g>
          </g>
        </g>
      </g>
      <path
         sodipodi:nodetypes="ssssssssssssssssss"
         inkscape:connector-curvature="0"
         style="fill:#33363a;stroke-width:1.20291162"
         d="M 161.72643,88.511618 H 9.7470395 c -9.0434891,0 -16.4016991,-7.359411 -16.4016991,-16.404104 V 47.56419 c 0,-9.044693 7.35821,-16.402903 16.4016991,-16.402903 H 161.72643 c 9.04469,0 16.4029,7.35821 16.4029,16.402903 v 24.543324 c 0,9.044693 -7.35821,16.404104 -16.4029,16.404104 z M 9.7470395,34.770022 c -7.0538731,0 -12.7929641,5.739091 -12.7929641,12.794168 v 24.543324 c 0,7.055077 5.739091,12.795374 12.7929641,12.795374 H 161.72643 c 7.05507,0 12.79416,-5.739094 12.79416,-12.795374 V 47.56419 c 0,-7.055077 -5.73909,-12.794168 -12.79416,-12.794168 z"
         id="path1426" />
    </g>
    <g
       id="g1708"
       transform="matrix(0.95340494,0,0,0.95340494,-6.1550903,3.1093521)">
      <g
         aria-label="PLAY AGAIN"
         style="font-style:normal;font-variant:normal;font-weight:normal;font-stretch:normal;font-size:8.92069244px;line-height:1.25;font-family:Rajdhani;-inkscape-font-specification:Rajdhani;letter-spacing:0px;word-spacing:0px;fill:#33363a;fill-opacity:1;stroke:none;stroke-width:0.22301729"
         id="text1702">
        <path
           d="m -115.88313,75.277725 h -0.562 q -0.15165,0 -0.15165,-0.151652 v -5.432701 q 0,-0.151652 0.15165,-0.151652 h 2.12312 q 0.65121,0 1.01696,0.365748 0.36575,0.356828 0.36575,1.016959 v 0.927752 q 0,0.651211 -0.36575,1.016959 -0.36575,0.365749 -1.01696,0.365749 h -1.30242 q -0.10705,0 -0.10705,0.08921 v 1.801979 q 0,0.151652 -0.15165,0.151652 z m 0.24978,-2.810018 h 1.18645 q 0.63337,0 0.63337,-0.660131 V 70.96011 q 0,-0.660131 -0.63337,-0.660131 h -1.18645 q -0.0981,0 -0.0981,0.08921 V 72.3785 q 0,0.08921 0.0981,0.08921 z"
           style="font-style:normal;font-variant:normal;font-weight:600;font-stretch:normal;font-family:Rajdhani;-inkscape-font-specification:'Rajdhani Semi-Bold';fill:#33363a;fill-opacity:1;stroke-width:0.22301729"
           id="path2218" />
        <path
           d="m -108.85056,75.277725 h -2.8903 q -0.15165,0 -0.15165,-0.151652 v -5.432701 q 0,-0.151652 0.15165,-0.151652 h 0.562 q 0.15166,0 0.15166,0.151652 v 4.719046 q 0,0.08921 0.10704,0.08921 h 2.0696 q 0.15166,0 0.15166,0.160572 v 0.463876 q 0,0.151652 -0.15166,0.151652 z"
           style="font-style:normal;font-variant:normal;font-weight:600;font-stretch:normal;font-family:Rajdhani;-inkscape-font-specification:'Rajdhani Semi-Bold';fill:#33363a;fill-opacity:1;stroke-width:0.22301729"
           id="path2220" />
        <path
           d="m -107.57295,75.277725 h -0.64228 q -0.12489,0 -0.0892,-0.151652 l 1.5522,-5.432701 q 0.0446,-0.151652 0.2141,-0.151652 h 0.89206 q 0.17842,0 0.2141,0.151652 l 1.5522,5.432701 q 0.0357,0.151652 -0.0981,0.151652 h -0.63337 q -0.0803,0 -0.11596,-0.02676 -0.0268,-0.03568 -0.0446,-0.12489 l -0.33898,-1.15969 h -1.96256 l -0.33898,1.15969 q -0.0357,0.151652 -0.16058,0.151652 z m 1.463,-4.879619 -0.78502,2.854622 h 1.61464 l -0.79394,-2.854622 z"
           style="font-style:normal;font-variant:normal;font-weight:600;font-stretch:normal;font-family:Rajdhani;-inkscape-font-specification:'Rajdhani Semi-Bold';fill:#33363a;fill-opacity:1;stroke-width:0.22301729"
           id="path2222" />
        <path
           d="m -101.08914,75.277725 h -0.57092 q -0.15165,0 -0.15165,-0.151652 V 73.1546 l -1.66817,-3.452308 q -0.0357,-0.07137 0,-0.115969 0.0357,-0.0446 0.0981,-0.0446 h 0.71365 q 0.11597,0 0.17842,0.151652 l 1.09724,2.45319 h 0.0535 l 1.0794,-2.45319 q 0.0535,-0.151652 0.17841,-0.151652 h 0.713658 q 0.07137,0 0.09813,0.0446 0.03568,0.0446 0,0.115969 l -1.668166,3.452308 v 1.971473 q 0,0.151652 -0.15166,0.151652 z"
           style="font-style:normal;font-variant:normal;font-weight:600;font-stretch:normal;font-family:Rajdhani;-inkscape-font-specification:'Rajdhani Semi-Bold';fill:#33363a;fill-opacity:1;stroke-width:0.22301729"
           id="path2224" />
        <path
           d="m -96.021345,75.277725 h -0.642289 q -0.12489,0 -0.08921,-0.151652 l 1.5522,-5.432701 q 0.0446,-0.151652 0.214097,-0.151652 h 0.892069 q 0.178414,0 0.214097,0.151652 l 1.5522,5.432701 q 0.03568,0.151652 -0.09813,0.151652 h -0.633369 q -0.08029,0 -0.115969,-0.02676 -0.02676,-0.03568 -0.0446,-0.12489 l -0.338986,-1.15969 h -1.962553 l -0.338986,1.15969 q -0.03568,0.151652 -0.160573,0.151652 z m 1.462994,-4.879619 -0.785021,2.854622 h 1.614645 l -0.793941,-2.854622 z"
           style="font-style:normal;font-variant:normal;font-weight:600;font-stretch:normal;font-family:Rajdhani;-inkscape-font-specification:'Rajdhani Semi-Bold';fill:#33363a;fill-opacity:1;stroke-width:0.22301729"
           id="path2226" />
        <path
           d="m -89.189627,75.277725 h -0.954514 q -0.660131,0 -1.02588,-0.365748 -0.356827,-0.365749 -0.356827,-1.016959 v -2.970591 q 0,-0.660131 0.356827,-1.016959 0.365749,-0.365748 1.02588,-0.365748 h 0.954514 q 0.660131,0 1.016959,0.365748 0.365748,0.356828 0.365748,1.016959 v 0.321145 q 0,0.160573 -0.151651,0.160573 h -0.562004 q -0.151652,0 -0.151652,-0.160573 V 70.96011 q 0,-0.660131 -0.64229,-0.660131 h -0.704734 q -0.64229,0 -0.64229,0.660131 v 2.899225 q 0,0.660131 0.64229,0.660131 h 0.704734 q 0.64229,0 0.64229,-0.660131 v -0.802862 q 0,-0.08921 -0.09813,-0.08921 h -0.722576 q -0.151652,0 -0.151652,-0.151652 v -0.454955 q 0,-0.151652 0.151652,-0.151652 h 1.498676 q 0.187334,0 0.187334,0.187335 v 1.498676 q 0,0.65121 -0.365748,1.016959 -0.365748,0.365748 -1.016959,0.365748 z"
           style="font-style:normal;font-variant:normal;font-weight:600;font-stretch:normal;font-family:Rajdhani;-inkscape-font-specification:'Rajdhani Semi-Bold';fill:#33363a;fill-opacity:1;stroke-width:0.22301729"
           id="path2228" />
        <path
           d="m -86.281761,75.277725 h -0.642289 q -0.12489,0 -0.08921,-0.151652 l 1.5522,-5.432701 q 0.0446,-0.151652 0.214097,-0.151652 h 0.892069 q 0.178414,0 0.214097,0.151652 l 1.5522,5.432701 q 0.03568,0.151652 -0.09813,0.151652 h -0.633369 q -0.08029,0 -0.115969,-0.02676 -0.02676,-0.03568 -0.0446,-0.12489 l -0.338986,-1.15969 h -1.962553 l -0.338986,1.15969 q -0.03568,0.151652 -0.160573,0.151652 z m 1.462994,-4.879619 -0.785021,2.854622 h 1.614645 l -0.793941,-2.854622 z"
           style="font-style:normal;font-variant:normal;font-weight:600;font-stretch:normal;font-family:Rajdhani;-inkscape-font-specification:'Rajdhani Semi-Bold';fill:#33363a;fill-opacity:1;stroke-width:0.22301729"
           id="path2230" />
        <path
           d="m -80.788149,69.693372 v 5.432701 q 0,0.151652 -0.151651,0.151652 h -0.562004 q -0.151652,0 -0.151652,-0.151652 v -5.432701 q 0,-0.151652 0.151652,-0.151652 h 0.562004 q 0.151651,0 0.151651,0.151652 z"
           style="font-style:normal;font-variant:normal;font-weight:600;font-stretch:normal;font-family:Rajdhani;-inkscape-font-specification:'Rajdhani Semi-Bold';fill:#33363a;fill-opacity:1;stroke-width:0.22301729"
           id="path2232" />
        <path
           d="m -78.728302,75.277725 h -0.553083 q -0.151652,0 -0.151652,-0.151652 v -5.432701 q 0,-0.151652 0.151652,-0.151652 h 0.499559 q 0.142731,0 0.196255,0.09813 l 2.158807,3.880501 h 0.03568 v -3.826977 q 0,-0.151652 0.151652,-0.151652 h 0.553083 q 0.151652,0 0.151652,0.151652 v 5.432701 q 0,0.151652 -0.151652,0.151652 h -0.481718 q -0.142731,0 -0.231938,-0.142731 l -2.140966,-3.835898 h -0.03568 v 3.826977 q 0,0.151652 -0.151651,0.151652 z"
           style="font-style:normal;font-variant:normal;font-weight:600;font-stretch:normal;font-family:Rajdhani;-inkscape-font-specification:'Rajdhani Semi-Bold';fill:#33363a;fill-opacity:1;stroke-width:0.22301729"
           id="path2234" />
      </g>
    </g>
  </g>
</svg>
