<?xml version="1.0" encoding="UTF-8" standalone="no"?>
<!-- Created with Inkscape (http://www.inkscape.org/) -->

<svg
   xmlns:dc="http://purl.org/dc/elements/1.1/"
   xmlns:cc="http://creativecommons.org/ns#"
   xmlns:rdf="http://www.w3.org/1999/02/22-rdf-syntax-ns#"
   xmlns:svg="http://www.w3.org/2000/svg"
   xmlns="http://www.w3.org/2000/svg"
   xmlns:sodipodi="http://sodipodi.sourceforge.net/DTD/sodipodi-0.dtd"
   xmlns:inkscape="http://www.inkscape.org/namespaces/inkscape"
   width="53.124096mm"
   height="17.110533mm"
   viewBox="0 0 53.124096 17.110532"
   version="1.1"
   id="svg1730"
   inkscape:version="0.92.2 (5c3e80d, 2017-08-06)"
   sodipodi:docname="title.svg">
  <defs
     id="defs1724" />
  <sodipodi:namedview
     id="base"
     pagecolor="#ffffff"
     bordercolor="#666666"
     borderopacity="1.0"
     inkscape:pageopacity="0.0"
     inkscape:pageshadow="2"
     inkscape:zoom="1.979899"
     inkscape:cx="0.79764112"
     inkscape:cy="21.287255"
     inkscape:document-units="mm"
     inkscape:current-layer="layer1"
     showgrid="false"
     inkscape:window-width="1366"
     inkscape:window-height="704"
     inkscape:window-x="0"
     inkscape:window-y="27"
     inkscape:window-maximized="1"
     fit-margin-top="0"
     fit-margin-left="0"
     fit-margin-right="0"
     fit-margin-bottom="0" />
  <metadata
     id="metadata1727">
    <rdf:RDF>
      <cc:Work
         rdf:about="">
        <dc:format>image/svg+xml</dc:format>
        <dc:type
           rdf:resource="http://purl.org/dc/dcmitype/StillImage" />
        <dc:title />
      </cc:Work>
    </rdf:RDF>
  </metadata>
  <g
     inkscape:label="Layer 1"
     inkscape:groupmode="layer"
     id="layer1"
     transform="translate(40.323725,-66.937296)">
    <text
       xml:space="preserve"
       style="font-style:normal;font-variant:normal;font-weight:normal;font-stretch:normal;font-size:10.58333302px;line-height:1.25;font-family:Rajdhani;-inkscape-font-specification:Rajdhani;letter-spacing:0px;word-spacing:0px;fill:#000000;fill-opacity:1;stroke:none;stroke-width:0.26458332"
       x="-79.375"
       y="143.35268"
       id="text2427"><tspan
         sodipodi:role="line"
         id="tspan2425"
         x="-79.375"
         y="152.38914"
         style="stroke-width:0.26458332" /></text>
    <g
       id="g2514"
       transform="matrix(1.2029116,0,0,1.2029116,5.1186952,-13.582349)">
      <g
         transform="matrix(0.26458333,0,0,0.26458333,-32.485357,56.904557)"
         id="g1641">
        <g
           id="g1530">
          <g
             id="g1420">
            <path
               sodipodi:nodetypes="sssssssss"
               inkscape:connector-curvature="0"
               style="fill:#ffd00b"
               d="m 145.415,68.633 c 0,6.702 -5.434,12.137 -12.136,12.137 H -6.3650003 C -13.066,80.77 -18.5,75.335 -18.5,68.633 V 51.555 c 0,-6.703 5.434,-12.136 12.1349997,-12.136 H 133.279 c 6.702,0 12.136,5.433 12.136,12.136 z"
               id="path1418" />
          </g>
          <g
             id="g1424">
            <path
               sodipodi:nodetypes="sssssssss"
               inkscape:connector-curvature="0"
               style="fill:#ff9c0d"
               d="M 133.279,39.419 H -6.3650003 C -13.066,39.419 -18.5,44.852 -18.5,51.555 v 11.828 c 0,6.702 5.434,12.137 12.1349997,12.137 H 133.279 c 6.702,0 12.136,-5.435 12.136,-12.137 V 51.555 c 0,-6.703 -5.434,-12.136 -12.136,-12.136 z"
               id="path1422" />
          </g>
          <g
             id="g1428">
            <path
               sodipodi:nodetypes="ssssssssssssssssss"
               inkscape:connector-curvature="0"
               style="fill:#33363a"
               d="M 133.279,82.27 H -6.3650003 C -13.883,82.27 -20,76.152 -20,68.633 V 51.555 c 0,-7.519 6.117,-13.636 13.6349997,-13.636 H 133.279 c 7.519,0 13.636,6.117 13.636,13.636 v 17.078 c 0,7.519 -6.117,13.637 -13.636,13.637 z M -6.3650003,40.919 C -12.229,40.919 -17,45.69 -17,51.555 v 17.078 c 0,5.865 4.771,10.637 10.6349997,10.637 H 133.279 c 5.865,0 10.636,-4.771 10.636,-10.637 V 51.555 c 0,-5.865 -4.771,-10.636 -10.636,-10.636 z"
               id="path1426" />
          </g>
          <g
             id="g1450" />
          <g
             id="g1454">
            <polyline
               transform="translate(0,-6)"
               style="fill:#ffd00b"
               points="76.716,82.922 63.458,96.18 50.199,82.922   "
               id="polyline1452" />
          </g>
          <g
             id="g1458">
            <path
               inkscape:connector-curvature="0"
               style="fill:#33363a"
               d="m 63.458,91.68 c -0.384,0 -0.768,-0.146 -1.061,-0.439 L 49.139,77.982 c -0.586,-0.585 -0.586,-1.535 0,-2.121 0.586,-0.586 1.535,-0.586 2.121,0 L 63.458,88.058 75.656,75.861 c 0.586,-0.586 1.535,-0.586 2.121,0 0.586,0.586 0.586,1.536 0,2.121 L 64.518,91.24 c -0.293,0.293 -0.677,0.44 -1.06,0.44 z"
               id="path1456" />
          </g>
          <g
             id="g1528">
            <g
               id="g1492">
              <g
                 id="g1468">
                <g
                   id="g1462" />
                <g
                   id="g1466" />
              </g>
              <g
                 id="g1490">
                <g
                   id="g1478">
                  <g
                     id="g1472" />
                  <g
                     id="g1476" />
                </g>
                <g
                   id="g1488">
                  <g
                     id="g1482" />
                  <g
                     id="g1486" />
                </g>
              </g>
            </g>
            <g
               id="g1526">
              <g
                 id="g1502">
                <g
                   id="g1496" />
                <g
                   id="g1500" />
              </g>
              <g
                 id="g1524">
                <g
                   id="g1512">
                  <g
                     id="g1506" />
                  <g
                     id="g1510" />
                </g>
                <g
                   id="g1522">
                  <g
                     id="g1516" />
                  <g
                     id="g1520" />
                </g>
              </g>
            </g>
          </g>
        </g>
        <g
           id="g1532" />
        <g
           id="g1534" />
        <g
           id="g1536" />
        <g
           id="g1538" />
        <g
           id="g1540" />
        <g
           id="g1542" />
        <g
           id="g1544" />
        <g
           id="g1546" />
        <g
           id="g1548" />
        <g
           id="g1550" />
        <g
           id="g1552" />
        <g
           id="g1554" />
        <g
           id="g1556" />
        <g
           id="g1558" />
        <g
           id="g1560" />
      </g>
      <g
         aria-label="MATCHING GAME"
         style="font-style:normal;font-variant:normal;font-weight:bold;font-stretch:normal;font-size:5.3432703px;line-height:1.25;font-family:Rajdhani;-inkscape-font-specification:'Rajdhani Bold';letter-spacing:0px;word-spacing:0px;fill:#33363a;fill-opacity:1;stroke:none;stroke-width:0.13358176"
         id="text2431">
        <path
           d="m -31.194006,71.0867 h 0.790804 q 0.112209,0 0.112209,0.112209 v 3.211305 q 0,0.112209 -0.112209,0.112209 h -0.438148 q -0.112209,0 -0.112209,-0.112209 v -2.53271 h -0.02137 l -0.545014,1.789996 q -0.03206,0.106865 -0.133581,0.106865 h -0.448835 q -0.101522,0 -0.133582,-0.106865 l -0.5557,-1.795339 h -0.02137 v 2.538053 q 0,0.06412 -0.02137,0.09084 -0.02137,0.02137 -0.09084,0.02137 h -0.438148 q -0.112208,0 -0.112208,-0.112209 v -3.211305 q 0,-0.112209 0.112208,-0.112209 h 0.796147 q 0.07481,0 0.101523,0.07481 l 0.566386,1.886174 h 0.03206 l 0.57173,-1.886174 q 0.01603,-0.07481 0.101522,-0.07481 z"
           style="font-style:normal;font-variant:normal;font-weight:bold;font-stretch:normal;font-family:Rajdhani;-inkscape-font-specification:'Rajdhani Bold';fill:#33363a;fill-opacity:1;stroke-width:0.13358176"
           id="path3950" />
        <path
           d="m -29.235364,74.522423 h -0.512954 q -0.09618,0 -0.06412,-0.112209 l 0.844237,-3.211305 q 0.0374,-0.112209 0.160298,-0.112209 h 0.710655 q 0.133582,0 0.160298,0.112209 l 0.844237,3.211305 q 0.03206,0.112209 -0.06412,0.112209 h -0.512954 q -0.05878,0 -0.08015,-0.02137 -0.02137,-0.02672 -0.03206,-0.09084 l -0.149612,-0.58776 h -1.041937 l -0.149612,0.58776 q -0.01069,0.06412 -0.0374,0.09084 -0.02137,0.02137 -0.07481,0.02137 z m 0.774775,-2.789187 -0.384716,1.544205 h 0.790804 l -0.384715,-1.544205 z"
           style="font-style:normal;font-variant:normal;font-weight:bold;font-stretch:normal;font-family:Rajdhani;-inkscape-font-specification:'Rajdhani Bold';fill:#33363a;fill-opacity:1;stroke-width:0.13358176"
           id="path3952" />
        <path
           d="m -25.555771,74.522423 h -0.448834 q -0.117552,0 -0.117552,-0.112209 v -2.676978 q 0,-0.05878 -0.05878,-0.05878 h -0.609133 q -0.112209,0 -0.112209,-0.112209 v -0.363342 q 0,-0.112209 0.112209,-0.112209 h 2.019756 q 0.112209,0 0.112209,0.112209 v 0.363342 q 0,0.112209 -0.112209,0.112209 h -0.609133 q -0.06412,0 -0.06412,0.05878 v 2.676978 q 0,0.112209 -0.112209,0.112209 z"
           style="font-style:normal;font-variant:normal;font-weight:bold;font-stretch:normal;font-family:Rajdhani;-inkscape-font-specification:'Rajdhani Bold';fill:#33363a;fill-opacity:1;stroke-width:0.13358176"
           id="path3954" />
        <path
           d="m -22.839469,74.522423 h -0.582416 q -0.422118,0 -0.651879,-0.224418 -0.229761,-0.224417 -0.229761,-0.646535 v -1.693817 q 0,-0.422118 0.229761,-0.646536 0.229761,-0.224417 0.651879,-0.224417 h 0.582416 q 0.416776,0 0.646536,0.229761 0.235104,0.224417 0.235104,0.641192 v 0.251134 q 0,0.117552 -0.117552,0.117552 h -0.448835 q -0.112208,0 -0.112208,-0.117552 v -0.219074 q 0,-0.170985 -0.07481,-0.240447 -0.06946,-0.07481 -0.240447,-0.07481 h -0.363343 q -0.165641,0 -0.240447,0.07481 -0.06946,0.06946 -0.06946,0.240447 v 1.629697 q 0,0.170985 0.06946,0.245791 0.07481,0.06946 0.240447,0.06946 h 0.363343 q 0.170984,0 0.240447,-0.06946 0.07481,-0.07481 0.07481,-0.245791 v -0.219074 q 0,-0.117552 0.112208,-0.117552 h 0.448835 q 0.117552,0 0.117552,0.117552 v 0.251134 q 0,0.416775 -0.235104,0.646535 -0.22976,0.224418 -0.646536,0.224418 z"
           style="font-style:normal;font-variant:normal;font-weight:bold;font-stretch:normal;font-family:Rajdhani;-inkscape-font-specification:'Rajdhani Bold';fill:#33363a;fill-opacity:1;stroke-width:0.13358176"
           id="path3956" />
        <path
           d="m -20.813785,74.522423 h -0.454178 q -0.112209,0 -0.112209,-0.112209 v -3.211305 q 0,-0.112209 0.112209,-0.112209 h 0.454178 q 0.112208,0 0.112208,0.112209 v 1.255668 q 0,0.05878 0.06412,0.05878 h 0.903013 q 0.05878,0 0.05878,-0.05878 v -1.255668 q 0,-0.112209 0.112209,-0.112209 h 0.454178 q 0.112208,0 0.112208,0.112209 v 3.211305 q 0,0.112209 -0.112208,0.112209 h -0.454178 q -0.112209,0 -0.112209,-0.112209 v -1.250325 q 0,-0.05878 -0.05878,-0.05878 h -0.903013 q -0.06412,0 -0.06412,0.05878 v 1.250325 q 0,0.112209 -0.112208,0.112209 z"
           style="font-style:normal;font-variant:normal;font-weight:bold;font-stretch:normal;font-family:Rajdhani;-inkscape-font-specification:'Rajdhani Bold';fill:#33363a;fill-opacity:1;stroke-width:0.13358176"
           id="path3958" />
        <path
           d="m -17.596218,71.198909 v 3.211305 q 0,0.112209 -0.112208,0.112209 h -0.454178 q -0.112209,0 -0.112209,-0.112209 v -3.211305 q 0,-0.112209 0.112209,-0.112209 h 0.454178 q 0.112208,0 0.112208,0.112209 z"
           style="font-style:normal;font-variant:normal;font-weight:bold;font-stretch:normal;font-family:Rajdhani;-inkscape-font-specification:'Rajdhani Bold';fill:#33363a;fill-opacity:1;stroke-width:0.13358176"
           id="path3960" />
        <path
           d="m -16.316088,74.522423 h -0.443492 q -0.112208,0 -0.112208,-0.112209 v -3.211305 q 0,-0.112209 0.112208,-0.112209 h 0.400746 q 0.112208,0 0.149611,0.07481 l 1.079341,2.025099 h 0.02137 v -1.987696 q 0,-0.112209 0.112208,-0.112209 h 0.443492 q 0.112209,0 0.112209,0.112209 v 3.211305 q 0,0.112209 -0.112209,0.112209 h -0.390059 q -0.117552,0 -0.170984,-0.106866 l -1.068655,-1.987696 h -0.02137 v 1.982353 q 0,0.112209 -0.112208,0.112209 z"
           style="font-style:normal;font-variant:normal;font-weight:bold;font-stretch:normal;font-family:Rajdhani;-inkscape-font-specification:'Rajdhani Bold';fill:#33363a;fill-opacity:1;stroke-width:0.13358176"
           id="path3962" />
        <path
           d="m -12.346372,74.522423 h -0.566386 q -0.422119,0 -0.651879,-0.224418 -0.229761,-0.224417 -0.229761,-0.646535 v -1.693817 q 0,-0.422118 0.229761,-0.646536 0.22976,-0.224417 0.651879,-0.224417 h 0.566386 q 0.416775,0 0.646536,0.229761 0.229761,0.224417 0.229761,0.641192 v 0.160298 q 0,0.117552 -0.112209,0.117552 h -0.454178 q -0.112209,0 -0.112209,-0.117552 v -0.128238 q 0,-0.170985 -0.06946,-0.240447 -0.06946,-0.07481 -0.240447,-0.07481 h -0.347313 q -0.165641,0 -0.240447,0.07481 -0.06946,0.06946 -0.06946,0.240447 v 1.629697 q 0,0.170985 0.06946,0.245791 0.07481,0.06946 0.240447,0.06946 h 0.347313 q 0.170984,0 0.240447,-0.06946 0.06946,-0.07481 0.06946,-0.245791 v -0.336626 q 0,-0.05878 -0.05878,-0.05878 h -0.320596 q -0.112209,0 -0.112209,-0.112209 v -0.363342 q 0,-0.112209 0.112209,-0.112209 h 0.935072 q 0.122896,0 0.122896,0.122896 v 0.892326 q 0,0.416775 -0.229761,0.646535 -0.229761,0.224418 -0.646536,0.224418 z"
           style="font-style:normal;font-variant:normal;font-weight:bold;font-stretch:normal;font-family:Rajdhani;-inkscape-font-specification:'Rajdhani Bold';fill:#33363a;fill-opacity:1;stroke-width:0.13358176"
           id="path3964" />
        <path
           d="M -8.2554293,74.522423 H -8.821816 q -0.4221183,0 -0.6518789,-0.224418 -0.2297607,-0.224417 -0.2297607,-0.646535 v -1.693817 q 0,-0.422118 0.2297607,-0.646536 Q -9.2439343,71.0867 -8.821816,71.0867 h 0.5663867 q 0.4167751,0 0.6465357,0.229761 0.2297606,0.224417 0.2297606,0.641192 v 0.160298 q 0,0.117552 -0.1122087,0.117552 h -0.4541779 q -0.1122087,0 -0.1122087,-0.117552 v -0.128238 q 0,-0.170985 -0.069462,-0.240447 -0.069463,-0.07481 -0.2404472,-0.07481 h -0.3473126 q -0.1656413,0 -0.2404471,0.07481 -0.069463,0.06946 -0.069463,0.240447 v 1.629697 q 0,0.170985 0.069463,0.245791 0.074806,0.06946 0.2404471,0.06946 h 0.3473126 q 0.1709847,0 0.2404472,-0.06946 0.069462,-0.07481 0.069462,-0.245791 v -0.336626 q 0,-0.05878 -0.058776,-0.05878 h -0.3205962 q -0.1122087,0 -0.1122087,-0.112209 v -0.363342 q 0,-0.112209 0.1122087,-0.112209 h 0.9350723 q 0.1228952,0 0.1228952,0.122896 v 0.892326 q 0,0.416775 -0.2297606,0.646535 -0.2297606,0.224418 -0.6465357,0.224418 z"
           style="font-style:normal;font-variant:normal;font-weight:bold;font-stretch:normal;font-family:Rajdhani;-inkscape-font-specification:'Rajdhani Bold';fill:#33363a;fill-opacity:1;stroke-width:0.13358176"
           id="path3966" />
        <path
           d="m -6.3803588,74.522423 h -0.5129539 q -0.096179,0 -0.064119,-0.112209 l 0.8442367,-3.211305 Q -6.0757924,71.0867 -5.9528972,71.0867 h 0.710655 q 0.1335817,0 0.1602981,0.112209 l 0.8442367,3.211305 q 0.03206,0.112209 -0.064119,0.112209 h -0.512954 q -0.058776,0 -0.080149,-0.02137 -0.021373,-0.02672 -0.03206,-0.09084 l -0.1496115,-0.58776 h -1.0419377 l -0.1496116,0.58776 q -0.010687,0.06412 -0.037403,0.09084 -0.021373,0.02137 -0.074806,0.02137 z m 0.7747742,-2.789187 -0.3847155,1.544205 h 0.790804 l -0.3847154,-1.544205 z"
           style="font-style:normal;font-variant:normal;font-weight:bold;font-stretch:normal;font-family:Rajdhani;-inkscape-font-specification:'Rajdhani Bold';fill:#33363a;fill-opacity:1;stroke-width:0.13358176"
           id="path3968" />
        <path
           d="m -1.4825002,71.0867 h 0.79080403 q 0.11220868,0 0.11220868,0.112209 v 3.211305 q 0,0.112209 -0.11220868,0.112209 H -1.1298443 q -0.1122087,0 -0.1122087,-0.112209 v -2.53271 h -0.021373 L -1.8084397,73.6675 q -0.03206,0.106865 -0.1335817,0.106865 h -0.4488347 q -0.1015222,0 -0.1335818,-0.106865 L -3.080138,71.872161 h -0.021373 v 2.538053 q 0,0.06412 -0.021373,0.09084 -0.021373,0.02137 -0.090835,0.02137 h -0.4381482 q -0.1122087,0 -0.1122087,-0.112209 v -3.211305 q 0,-0.112209 0.1122087,-0.112209 h 0.7961473 q 0.074806,0 0.1015221,0.07481 l 0.5663866,1.886174 h 0.03206 l 0.5717299,-1.886174 q 0.01603,-0.07481 0.1015221,-0.07481 z"
           style="font-style:normal;font-variant:normal;font-weight:bold;font-stretch:normal;font-family:Rajdhani;-inkscape-font-specification:'Rajdhani Bold';fill:#33363a;fill-opacity:1;stroke-width:0.13358176"
           id="path3970" />
        <path
           d="M 1.9775989,74.522423 H 0.23034949 q -0.11220867,0 -0.11220867,-0.112209 v -3.211305 q 0,-0.112209 0.11220867,-0.112209 H 1.9775989 q 0.1068654,0 0.1068654,0.112209 v 0.363342 q 0,0.112209 -0.1068654,0.112209 H 0.86085539 q -0.0641192,0 -0.0641192,0.05878 v 0.694625 q 0,0.05878 0.0641192,0.05878 H 1.7745546 q 0.1122087,0 0.1122087,0.112208 v 0.363343 q 0,0.112209 -0.1122087,0.112209 H 0.86085539 q -0.0641192,0 -0.0641192,0.05878 v 0.742714 q 0,0.05878 0.0641192,0.05878 H 1.9775989 q 0.1068654,0 0.1068654,0.112209 v 0.363342 q 0,0.112209 -0.1068654,0.112209 z"
           style="font-style:normal;font-variant:normal;font-weight:bold;font-stretch:normal;font-family:Rajdhani;-inkscape-font-specification:'Rajdhani Bold';fill:#33363a;fill-opacity:1;stroke-width:0.13358176"
           id="path3972" />
      </g>
    </g>
  </g>
</svg>
