<?xml version="1.0" encoding="UTF-8" standalone="no"?>
<!-- Generator: Adobe Illustrator 19.0.0, SVG Export Plug-In . SVG Version: 6.00 Build 0)  -->

<svg
   xmlns:dc="http://purl.org/dc/elements/1.1/"
   xmlns:cc="http://creativecommons.org/ns#"
   xmlns:rdf="http://www.w3.org/1999/02/22-rdf-syntax-ns#"
   xmlns:svg="http://www.w3.org/2000/svg"
   xmlns="http://www.w3.org/2000/svg"
   xmlns:sodipodi="http://sodipodi.sourceforge.net/DTD/sodipodi-0.dtd"
   xmlns:inkscape="http://www.inkscape.org/namespaces/inkscape"
   version="1.1"
   id="Layer_1"
   x="0px"
   y="0px"
   viewBox="0 0 127.3905 96.430001"
   xml:space="preserve"
   sodipodi:docname="crown.svg"
   width="127.3905"
   height="96.43"
   inkscape:version="0.92.2 (5c3e80d, 2017-08-06)"><metadata
     id="metadata1566"><rdf:RDF><cc:Work
         rdf:about=""><dc:format>image/svg+xml</dc:format><dc:type
           rdf:resource="http://purl.org/dc/dcmitype/StillImage" /><dc:title></dc:title></cc:Work></rdf:RDF></metadata><defs
     id="defs1564" /><sodipodi:namedview
     pagecolor="#ffffff"
     bordercolor="#666666"
     borderopacity="1"
     objecttolerance="10"
     gridtolerance="10"
     guidetolerance="10"
     inkscape:pageopacity="0"
     inkscape:pageshadow="2"
     inkscape:window-width="1366"
     inkscape:window-height="704"
     id="namedview1562"
     showgrid="false"
     inkscape:zoom="4.0112724"
     inkscape:cx="18.574705"
     inkscape:cy="32.735502"
     inkscape:window-x="0"
     inkscape:window-y="27"
     inkscape:window-maximized="1"
     inkscape:current-layer="Layer_1"
     fit-margin-top="0"
     fit-margin-left="0"
     fit-margin-right="0"
     fit-margin-bottom="0" /><g
     id="g1529"
     transform="translate(-6.9845806e-4,-15.481)"><g
       id="g1449"><polygon
         style="fill:#fff80d"
         points="106.421,46.121 114.164,56.223 87.435,67.955 71.673,55.584 79.04,43.063 63.696,16.981 48.351,43.063 55.718,55.584 39.956,67.953 13.228,56.223 20.97,46.121 1.5,37.002 5.035,52.629 5.02,52.621 8.509,68.042 16.654,110.41 110.735,110.41 118.875,68.074 122.371,52.621 122.356,52.629 125.891,37.002 "
         id="polygon1447" /></g><g
       id="g1453"><polygon
         style="fill:#ffd00b"
         points="114.164,56.223 114.164,63.379 87.435,75.111 71.673,62.74 71.673,55.584 76.935,46.641 63.696,24.137 50.456,46.641 55.718,55.584 55.718,62.74 39.956,75.11 13.228,63.379 13.228,56.223 16.934,51.387 3.312,45.005 5.035,52.629 5.02,52.621 8.509,68.042 16.654,110.41 110.735,110.41 118.875,68.074 122.371,52.621 122.356,52.629 124.08,45.005 110.457,51.387 "
         id="polygon1451" /></g><g
       id="g1457"><circle
         style="fill:#ffaf10"
         cx="63.695"
         cy="86.586998"
         r="15.735"
         id="circle1455" /></g><g
       id="g1461"><path
         style="fill:#ff860d"
         d="m 79.431,86.587 c 0,6.658 -7.046,12.054 -15.736,12.054 -8.689,0 -15.734,-5.396 -15.734,-12.054 0,-6.651 7.045,-12.054 15.734,-12.054 8.69,0 15.736,5.403 15.736,12.054 z"
         id="path1459"
         inkscape:connector-curvature="0" /></g><g
       id="g1465"><path
         style="fill:#fff9de"
         d="m 47.96,86.587 c 0,8.691 7.045,15.737 15.734,15.737 8.69,0 15.736,-7.046 15.736,-15.737 z"
         id="path1463"
         inkscape:connector-curvature="0" /></g><g
       id="g1469"><path
         style="fill:#fff3c2"
         d="m 63.694,98.641 c 8.69,0 15.736,-5.396 15.736,-12.054 H 47.96 c 0,6.658 7.045,12.054 15.734,12.054 z"
         id="path1467"
         inkscape:connector-curvature="0" /></g><path
       style="fill:#33363a"
       d="m 126.831,35.834 c -0.445,-0.358 -1.058,-0.433 -1.577,-0.19 l -19.469,9.119 c -0.412,0.193 -0.714,0.562 -0.821,1.003 -0.107,0.441 -0.01,0.908 0.267,1.268 l 6.58,8.584 L 87.654,66.221 73.631,55.214 80.333,43.823 c 0.276,-0.47 0.276,-1.052 0,-1.521 L 64.989,16.22 c -0.27,-0.458 -0.762,-0.739 -1.293,-0.739 -0.531,0 -1.023,0.281 -1.293,0.739 L 47.058,42.302 c -0.276,0.47 -0.276,1.052 0,1.521 L 53.76,55.214 39.736,66.219 15.581,55.618 22.16,47.034 c 0.276,-0.361 0.374,-0.827 0.267,-1.268 -0.107,-0.441 -0.409,-0.81 -0.821,-1.003 L 2.137,35.644 C 1.617,35.4 1.005,35.475 0.56,35.834 c -0.446,0.359 -0.649,0.941 -0.522,1.5 l 3.488,15.42 c 0.006,0.066 0.017,0.133 0.031,0.199 l 3.479,15.373 8.146,42.368 c 0.136,0.706 0.754,1.217 1.473,1.217 h 94.081 c 0.719,0 1.337,-0.511 1.473,-1.217 l 8.13,-42.288 3.496,-15.453 c 0.015,-0.066 0.025,-0.133 0.031,-0.199 l 3.488,-15.42 c 0.127,-0.559 -0.077,-1.141 -0.523,-1.5 z M 77.85,88.087 c -0.752,7.148 -6.813,12.737 -14.156,12.737 -7.342,0 -13.402,-5.589 -14.154,-12.737 z m -28.309,-3 c 0.752,-7.147 6.812,-12.735 14.154,-12.735 7.343,0 13.403,5.589 14.156,12.735 z m 71.352,-32.789 c -0.015,0.066 -0.025,0.132 -0.031,0.197 l -3.459,15.296 -7.906,41.119 H 65.195 v -5.162 c 8.802,-0.764 15.735,-8.163 15.735,-17.161 0,-9.504 -7.732,-17.235 -17.236,-17.235 -9.503,0 -17.234,7.731 -17.234,17.235 0,8.999 6.933,16.398 15.735,17.161 v 5.162 H 17.894 L 9.972,67.711 6.529,52.497 C 6.523,52.431 6.512,52.364 6.498,52.298 L 3.64,39.66 18.645,46.688 12.038,55.31 c -0.28,0.366 -0.377,0.84 -0.263,1.286 0.115,0.446 0.429,0.815 0.851,1 l 26.729,11.731 c 0.506,0.221 1.094,0.147 1.528,-0.194 L 56.645,56.764 c 0.591,-0.464 0.748,-1.293 0.367,-1.941 L 50.092,43.062 63.697,19.938 77.3,43.063 70.38,54.824 c -0.381,0.647 -0.224,1.477 0.367,1.941 l 15.762,12.371 c 0.435,0.342 1.022,0.414 1.528,0.193 l 26.729,-11.732 c 0.422,-0.185 0.735,-0.554 0.851,-1 0.114,-0.446 0.018,-0.92 -0.263,-1.286 l -6.608,-8.622 15.005,-7.028 z"
       id="path1471"
       inkscape:connector-curvature="0" /><g
       id="g1509"><g
         id="g1489"><g
           id="g1475"><path
             style="fill:#33363a"
             d="m 43.762,103.824 h -2.356 c -0.828,0 -1.5,-0.672 -1.5,-1.5 0,-0.828 0.672,-1.5 1.5,-1.5 h 2.356 c 0.828,0 1.5,0.672 1.5,1.5 0,0.828 -0.672,1.5 -1.5,1.5 z"
             id="path1473"
             inkscape:connector-curvature="0" /></g><g
           id="g1479"><path
             style="fill:#33363a"
             d="m 36.488,103.824 h -2.357 c -0.828,0 -1.5,-0.672 -1.5,-1.5 0,-0.828 0.672,-1.5 1.5,-1.5 h 2.357 c 0.828,0 1.5,0.672 1.5,1.5 0,0.828 -0.671,1.5 -1.5,1.5 z"
             id="path1477"
             inkscape:connector-curvature="0" /></g><g
           id="g1483"><path
             style="fill:#33363a"
             d="M 29.214,103.824 H 15.731 c -0.828,0 -1.5,-0.672 -1.5,-1.5 0,-0.828 0.672,-1.5 1.5,-1.5 h 13.483 c 0.828,0 1.5,0.672 1.5,1.5 0,0.828 -0.672,1.5 -1.5,1.5 z"
             id="path1481"
             inkscape:connector-curvature="0" /></g><g
           id="g1487"><path
             style="fill:#33363a"
             d="m 48.155,103.825 c -0.391,0 -0.78,-0.16 -1.061,-0.44 -0.279,-0.279 -0.439,-0.67 -0.439,-1.06 0,-0.4 0.16,-0.78 0.439,-1.061 0.561,-0.56 1.561,-0.56 2.12,0 0.28,0.28 0.44,0.671 0.44,1.061 0,0.39 -0.16,0.78 -0.44,1.06 -0.278,0.28 -0.659,0.44 -1.059,0.44 z"
             id="path1485"
             inkscape:connector-curvature="0" /></g></g><g
         id="g1507"><g
           id="g1493"><path
             style="fill:#33363a"
             d="M 85.986,103.824 H 83.63 c -0.828,0 -1.5,-0.672 -1.5,-1.5 0,-0.828 0.672,-1.5 1.5,-1.5 h 2.356 c 0.828,0 1.5,0.672 1.5,1.5 0,0.828 -0.671,1.5 -1.5,1.5 z"
             id="path1491"
             inkscape:connector-curvature="0" /></g><g
           id="g1497"><path
             style="fill:#33363a"
             d="m 93.26,103.824 h -2.357 c -0.828,0 -1.5,-0.672 -1.5,-1.5 0,-0.828 0.672,-1.5 1.5,-1.5 h 2.357 c 0.828,0 1.5,0.672 1.5,1.5 0,0.828 -0.672,1.5 -1.5,1.5 z"
             id="path1495"
             inkscape:connector-curvature="0" /></g><g
           id="g1501"><path
             style="fill:#33363a"
             d="M 111.66,103.824 H 98.177 c -0.828,0 -1.5,-0.672 -1.5,-1.5 0,-0.828 0.672,-1.5 1.5,-1.5 h 13.483 c 0.828,0 1.5,0.672 1.5,1.5 0,0.828 -0.672,1.5 -1.5,1.5 z"
             id="path1499"
             inkscape:connector-curvature="0" /></g><g
           id="g1505"><path
             style="fill:#33363a"
             d="m 79.236,103.825 c -0.391,0 -0.78,-0.16 -1.061,-0.44 -0.279,-0.279 -0.439,-0.67 -0.439,-1.06 0,-0.4 0.16,-0.78 0.439,-1.061 0.561,-0.56 1.561,-0.56 2.12,0 0.28,0.28 0.44,0.671 0.44,1.061 0,0.39 -0.16,0.78 -0.44,1.06 -0.28,0.28 -0.67,0.44 -1.059,0.44 z"
             id="path1503"
             inkscape:connector-curvature="0" /></g></g></g><g
       id="g1527"><g
         id="g1513"><circle
           style="fill:#a7bbc1"
           cx="63.695"
           cy="88.390999"
           r="5.2020001"
           id="circle1511" /></g><g
         id="g1517"><circle
           style="fill:#ffffff"
           cx="63.695"
           cy="86.621002"
           r="5.2020001"
           id="circle1515" /></g><g
         id="g1521"><path
           style="fill:#d8e5ea"
           d="m 60.016,90.299 c -2.031,-2.029 -2.031,-5.326 0,-7.356 2.032,-2.031 5.327,-2.031 7.358,0"
           id="path1519"
           inkscape:connector-curvature="0" /></g><g
         id="g1525"><path
           style="fill:#33363a"
           d="m 63.695,93.324 c -1.791,0 -3.475,-0.698 -4.74,-1.965 -1.266,-1.265 -1.963,-2.947 -1.963,-4.738 0,-1.791 0.697,-3.475 1.963,-4.739 2.613,-2.613 6.866,-2.612 9.479,-0.001 v 0 c 1.267,1.266 1.964,2.949 1.964,4.741 0,1.791 -0.698,3.474 -1.965,4.738 -1.264,1.266 -2.947,1.964 -4.738,1.964 z m 0,-10.403 c -0.948,0 -1.897,0.36 -2.619,1.082 -0.699,0.699 -1.084,1.629 -1.084,2.618 0,0.989 0.385,1.919 1.084,2.616 1.4,1.402 3.84,1.401 5.236,0.001 0.7,-0.699 1.086,-1.628 1.086,-2.617 0,-0.989 -0.385,-1.919 -1.085,-2.617 0,-0.001 0,-0.001 0,-0.001 -0.721,-0.722 -1.669,-1.082 -2.618,-1.082 z"
           id="path1523"
           inkscape:connector-curvature="0" /></g></g></g><g
     id="g1531"
     transform="translate(-6.9845806e-4,-15.481)" /><g
     id="g1533"
     transform="translate(-6.9845806e-4,-15.481)" /><g
     id="g1535"
     transform="translate(-6.9845806e-4,-15.481)" /><g
     id="g1537"
     transform="translate(-6.9845806e-4,-15.481)" /><g
     id="g1539"
     transform="translate(-6.9845806e-4,-15.481)" /><g
     id="g1541"
     transform="translate(-6.9845806e-4,-15.481)" /><g
     id="g1543"
     transform="translate(-6.9845806e-4,-15.481)" /><g
     id="g1545"
     transform="translate(-6.9845806e-4,-15.481)" /><g
     id="g1547"
     transform="translate(-6.9845806e-4,-15.481)" /><g
     id="g1549"
     transform="translate(-6.9845806e-4,-15.481)" /><g
     id="g1551"
     transform="translate(-6.9845806e-4,-15.481)" /><g
     id="g1553"
     transform="translate(-6.9845806e-4,-15.481)" /><g
     id="g1555"
     transform="translate(-6.9845806e-4,-15.481)" /><g
     id="g1557"
     transform="translate(-6.9845806e-4,-15.481)" /><g
     id="g1559"
     transform="translate(-6.9845806e-4,-15.481)" /></svg>