<?xml version="1.0" encoding="UTF-8" standalone="no"?>
<!-- Created with Inkscape (http://www.inkscape.org/) -->

<svg
   xmlns:dc="http://purl.org/dc/elements/1.1/"
   xmlns:cc="http://creativecommons.org/ns#"
   xmlns:rdf="http://www.w3.org/1999/02/22-rdf-syntax-ns#"
   xmlns:svg="http://www.w3.org/2000/svg"
   xmlns="http://www.w3.org/2000/svg"
   xmlns:sodipodi="http://sodipodi.sourceforge.net/DTD/sodipodi-0.dtd"
   xmlns:inkscape="http://www.inkscape.org/namespaces/inkscape"
   width="7.6097593mm"
   height="7.3204918mm"
   viewBox="0 0 7.6097593 7.3204918"
   version="1.1"
   id="svg9393"
   inkscape:version="0.92.2 (5c3e80d, 2017-08-06)"
   sodipodi:docname="empty_star.svg">
  <defs
     id="defs9387" />
  <sodipodi:namedview
     id="base"
     pagecolor="#ffffff"
     bordercolor="#666666"
     borderopacity="1.0"
     inkscape:pageopacity="0.0"
     inkscape:pageshadow="2"
     inkscape:zoom="3.959798"
     inkscape:cx="-25.814995"
     inkscape:cy="-16.628285"
     inkscape:document-units="mm"
     inkscape:current-layer="layer1"
     showgrid="false"
     fit-margin-top="0"
     fit-margin-left="0"
     fit-margin-right="0"
     fit-margin-bottom="0"
     inkscape:window-width="1366"
     inkscape:window-height="704"
     inkscape:window-x="0"
     inkscape:window-y="27"
     inkscape:window-maximized="1" />
  <metadata
     id="metadata9390">
    <rdf:RDF>
      <cc:Work
         rdf:about="">
        <dc:format>image/svg+xml</dc:format>
        <dc:type
           rdf:resource="http://purl.org/dc/dcmitype/StillImage" />
        <dc:title></dc:title>
      </cc:Work>
    </rdf:RDF>
  </metadata>
  <g
     inkscape:label="Layer 1"
     inkscape:groupmode="layer"
     id="layer1"
     transform="translate(-204.08202,-43.119516)">
    <g
       id="g9369"
       transform="matrix(0.26458333,0,0,0.26458333,179.10392,17.784209)">
      <g
         id="g9367"
         transform="translate(11.35269,-2.7945082)">
        <g
           id="g9357" />
        <g
           id="g9361" />
        <g
           id="g9365">
          <path
             style="fill:#33363a"
             d="m 90.55,126.218 c -0.665,0 -1.329,-0.207 -1.899,-0.616 -1.014,-0.737 -1.508,-1.953 -1.297,-3.18 l 1.028,-5.982 -4.347,-4.234 c -0.89,-0.866 -1.205,-2.14 -0.822,-3.323 0.388,-1.188 1.393,-2.033 2.623,-2.209 l 6.002,-0.874 2.687,-5.445 c 0.549,-1.113 1.664,-1.805 2.908,-1.805 1.244,0 2.358,0.691 2.908,1.805 l 2.687,5.445 6.008,0.875 c 1.208,0.173 2.238,1.039 2.618,2.206 0,0.002 0,0.003 0.001,0.004 0.381,1.183 0.066,2.455 -0.822,3.321 l -4.348,4.234 1.027,5.982 c 0.21,1.227 -0.284,2.442 -1.29,3.174 -0.988,0.716 -2.36,0.809 -3.425,0.239 l -5.363,-2.818 -5.373,2.823 c -0.477,0.253 -0.994,0.378 -1.511,0.378 z m 6.882,-24.669 c -0.092,0 -0.178,0.052 -0.217,0.133 l -3.035,6.152 c -0.218,0.442 -0.641,0.749 -1.129,0.82 l -6.787,0.988 c -0.094,0.014 -0.168,0.077 -0.198,0.167 -0.027,0.084 -0.003,0.183 0.062,0.246 l 4.913,4.786 c 0.354,0.345 0.515,0.841 0.432,1.328 l -1.161,6.76 c -0.016,0.092 0.022,0.186 0.097,0.24 0.072,0.051 0.169,0.06 0.248,0.019 l 6.079,-3.194 c 0.437,-0.229 0.959,-0.229 1.396,0 l 6.07,3.189 c 0.049,0.027 0.135,0.074 0.258,-0.016 0.072,-0.053 0.11,-0.146 0.095,-0.238 l -1.16,-6.76 c -0.083,-0.487 0.078,-0.983 0.432,-1.328 l 4.912,-4.785 c 0.065,-0.063 0.089,-0.162 0.061,-0.251 -0.029,-0.088 -0.103,-0.149 -0.192,-0.162 l -6.792,-0.989 c -0.488,-0.071 -0.911,-0.378 -1.129,-0.82 l -3.035,-6.152 c -0.043,-0.082 -0.127,-0.133 -0.22,-0.133 z"
             id="path9363"
             inkscape:connector-curvature="0" />
        </g>
      </g>
    </g>
  </g>
</svg>
