<?xml version="1.0" encoding="UTF-8" standalone="no"?>
<!-- Created with Inkscape (http://www.inkscape.org/) -->

<svg
   xmlns:dc="http://purl.org/dc/elements/1.1/"
   xmlns:cc="http://creativecommons.org/ns#"
   xmlns:rdf="http://www.w3.org/1999/02/22-rdf-syntax-ns#"
   xmlns:svg="http://www.w3.org/2000/svg"
   xmlns="http://www.w3.org/2000/svg"
   xmlns:sodipodi="http://sodipodi.sourceforge.net/DTD/sodipodi-0.dtd"
   xmlns:inkscape="http://www.inkscape.org/namespaces/inkscape"
   width="35.960842mm"
   height="27.868298mm"
   viewBox="0 0 35.960842 27.868297"
   version="1.1"
   id="svg1037"
   inkscape:version="0.92.2 (5c3e80d, 2017-08-06)"
   sodipodi:docname="start.svg">
  <defs
     id="defs1031" />
  <sodipodi:namedview
     id="base"
     pagecolor="#ffffff"
     bordercolor="#666666"
     borderopacity="1.0"
     inkscape:pageopacity="0.0"
     inkscape:pageshadow="2"
     inkscape:zoom="3.959798"
     inkscape:cx="21.701748"
     inkscape:cy="41.910301"
     inkscape:document-units="mm"
     inkscape:current-layer="layer1"
     showgrid="false"
     fit-margin-top="0"
     fit-margin-left="0"
     fit-margin-right="0"
     fit-margin-bottom="0"
     inkscape:window-width="1366"
     inkscape:window-height="704"
     inkscape:window-x="0"
     inkscape:window-y="27"
     inkscape:window-maximized="1" />
  <metadata
     id="metadata1034">
    <rdf:RDF>
      <cc:Work
         rdf:about="">
        <dc:format>image/svg+xml</dc:format>
        <dc:type
           rdf:resource="http://purl.org/dc/dcmitype/StillImage" />
        <dc:title />
      </cc:Work>
    </rdf:RDF>
  </metadata>
  <g
     inkscape:label="Layer 1"
     inkscape:groupmode="layer"
     id="layer1"
     transform="translate(121.5459,-59.266149)">
    <g
       id="g908">
      <g
         id="g927"
         transform="matrix(0.26458333,0,0,0.26458333,-120.35527,57.204251)">
        <g
           id="g817">
          <path
             sodipodi:nodetypes="sssssssss"
             id="path815"
             d="m 131.415,74.633 c 0,6.702 -5.434,12.137 -12.136,12.137 H 7.6349999 c -6.70099998,0 -12.135,-5.435 -12.135,-12.137 V 45.555 c 0,-6.703 5.43400002,-12.136 12.135,-12.136 H 119.279 c 6.702,0 12.136,5.433 12.136,12.136 z"
             style="fill:#ffd00b"
             inkscape:connector-curvature="0" />
        </g>
        <g
           id="g821">
          <path
             sodipodi:nodetypes="sssssssss"
             id="path819"
             d="M 119.279,33.419 H 7.6349999 c -6.70099998,0 -12.135,5.433 -12.135,12.136 v 23.828 c 0,6.702 5.43400002,12.137 12.135,12.137 H 119.279 c 6.702,0 12.136,-5.435 12.136,-12.137 V 45.555 c 0,-6.703 -5.434,-12.136 -12.136,-12.136 z"
             style="fill:#ff9c0d"
             inkscape:connector-curvature="0" />
        </g>
        <g
           id="g825" />
        <g
           id="g847" />
        <g
           id="g851" />
        <g
           id="g855" />
        <g
           id="g925">
          <g
             id="g889">
            <g
               id="g865">
              <g
                 id="g859">
                <path
                   id="path857"
                   d="m 63.46,11.785 c -0.829,0 -1.5,-0.671 -1.5,-1.5 V 9.293 c 0,-0.829 0.671,-1.5 1.5,-1.5 0.829,0 1.5,0.671 1.5,1.5 v 0.992 c 0,0.829 -0.671,1.5 -1.5,1.5 z"
                   style="fill:#ffd00b;fill-opacity:1"
                   inkscape:connector-curvature="0" />
              </g>
              <g
                 id="g863">
                <path
                   id="path861"
                   d="m 63.459,26.65 v 0 c -0.829,0 -1.5,-0.672 -1.5,-1.5 l 10e-4,-5.824 c 0,-0.828 0.672,-1.5 1.5,-1.5 v 0 c 0.828,0 1.5,0.672 1.5,1.5 l -10e-4,5.824 c 0,0.829 -0.672,1.5 -1.5,1.5 z"
                   style="fill:#ffd00b;fill-opacity:1"
                   inkscape:connector-curvature="0" />
              </g>
            </g>
            <g
               id="g887">
              <g
                 id="g875">
                <g
                   id="g869">
                  <path
                     id="path867"
                     d="m 36.1,17.119 c -0.381,0 -0.763,-0.145 -1.055,-0.434 l -0.708,-0.701 c -0.589,-0.583 -0.594,-1.532 -0.011,-2.121 0.582,-0.589 1.532,-0.594 2.121,-0.011 l 0.708,0.701 c 0.589,0.583 0.594,1.532 0.011,2.121 -0.293,0.297 -0.68,0.445 -1.066,0.445 z"
                     style="fill:#ffd00b;fill-opacity:1"
                     inkscape:connector-curvature="0" />
                </g>
                <g
                   id="g873">
                  <path
                     id="path871"
                     d="m 46.612,27.635 c -0.384,0 -0.768,-0.146 -1.061,-0.44 l -4.123,-4.127 c -0.585,-0.586 -0.585,-1.536 0.001,-2.121 0.586,-0.585 1.536,-0.585 2.121,0.001 l 4.123,4.127 c 0.585,0.586 0.585,1.536 -0.001,2.121 -0.293,0.292 -0.676,0.439 -1.06,0.439 z"
                     style="fill:#ffd00b;fill-opacity:1"
                     inkscape:connector-curvature="0" />
                </g>
              </g>
              <g
                 id="g885">
                <g
                   id="g879">
                  <path
                     id="path877"
                     d="m 90.818,17.123 c -0.384,0 -0.768,-0.146 -1.061,-0.44 -0.585,-0.586 -0.585,-1.536 10e-4,-2.121 l 0.706,-0.705 c 0.585,-0.585 1.536,-0.586 2.121,0.001 0.585,0.586 0.585,1.536 -10e-4,2.121 l -0.706,0.705 c -0.292,0.293 -0.676,0.439 -1.06,0.439 z"
                     style="fill:#ffd00b;fill-opacity:1"
                     inkscape:connector-curvature="0" />
                </g>
                <g
                   id="g883">
                  <path
                     id="path881"
                     d="m 80.309,27.636 c -0.383,0 -0.767,-0.146 -1.06,-0.438 -0.586,-0.585 -0.587,-1.535 -10e-4,-2.122 l 4.12,-4.126 c 0.585,-0.585 1.535,-0.588 2.122,-10e-4 0.586,0.585 0.587,1.535 0.001,2.122 l -4.12,4.126 c -0.293,0.292 -0.678,0.439 -1.062,0.439 z"
                     style="fill:#ffd00b;fill-opacity:1"
                     inkscape:connector-curvature="0" />
                </g>
              </g>
            </g>
          </g>
          <g
             id="g923">
            <g
               id="g899">
              <g
                 id="g893">
                <path
                   id="path891"
                   d="m 63.455,113.122 c -0.829,0 -1.5,-0.671 -1.5,-1.5 v -0.992 c 0,-0.829 0.671,-1.5 1.5,-1.5 0.829,0 1.5,0.671 1.5,1.5 v 0.992 c 0,0.829 -0.672,1.5 -1.5,1.5 z"
                   style="fill:#ffd00b;fill-opacity:1"
                   inkscape:connector-curvature="0" />
              </g>
              <g
                 id="g897">
                <path
                   id="path895"
                   d="m 63.455,103.089 v 0 c -0.829,0 -1.5,-0.672 -1.5,-1.5 l 0.001,-5.824 c 0,-0.828 0.672,-1.5 1.5,-1.5 v 0 c 0.828,0 1.5,0.672 1.5,1.5 l -0.001,5.824 c 0,0.828 -0.672,1.5 -1.5,1.5 z"
                   style="fill:#ffd00b;fill-opacity:1"
                   inkscape:connector-curvature="0" />
              </g>
            </g>
            <g
               id="g921">
              <g
                 id="g909">
                <g
                   id="g903">
                  <path
                     id="path901"
                     d="m 91.524,107.497 c -0.381,0 -0.763,-0.145 -1.055,-0.434 l -0.708,-0.701 c -0.589,-0.583 -0.594,-1.532 -0.011,-2.121 0.582,-0.589 1.532,-0.593 2.121,-0.011 l 0.708,0.701 c 0.589,0.583 0.594,1.532 0.011,2.121 -0.293,0.297 -0.68,0.445 -1.066,0.445 z"
                     style="fill:#ffd00b;fill-opacity:1"
                     inkscape:connector-curvature="0" />
                </g>
                <g
                   id="g907">
                  <path
                     id="path905"
                     d="m 84.426,100.407 c -0.384,0 -0.768,-0.146 -1.061,-0.44 L 79.242,95.84 c -0.585,-0.586 -0.585,-1.536 10e-4,-2.121 0.586,-0.585 1.535,-0.585 2.121,0.001 l 4.123,4.127 c 0.585,0.586 0.585,1.536 -10e-4,2.121 -0.293,0.293 -0.676,0.439 -1.06,0.439 z"
                     style="fill:#ffd00b;fill-opacity:1"
                     inkscape:connector-curvature="0" />
                </g>
              </g>
              <g
                 id="g919">
                <g
                   id="g913">
                  <path
                     id="path911"
                     d="m 35.391,107.497 c -0.384,0 -0.768,-0.146 -1.061,-0.44 -0.585,-0.586 -0.585,-1.536 0.001,-2.121 l 0.706,-0.705 c 0.585,-0.585 1.536,-0.585 2.121,0.001 0.585,0.586 0.585,1.536 -0.001,2.121 l -0.706,0.705 c -0.292,0.293 -0.676,0.439 -1.06,0.439 z"
                     style="fill:#ffd00b;fill-opacity:1"
                     inkscape:connector-curvature="0" />
                </g>
                <g
                   id="g917">
                  <path
                     id="path915"
                     d="m 42.486,100.405 c -0.383,0 -0.767,-0.146 -1.06,-0.438 -0.586,-0.585 -0.587,-1.535 -0.001,-2.122 l 4.12,-4.126 c 0.584,-0.586 1.534,-0.587 2.122,-10e-4 0.586,0.585 0.587,1.535 10e-4,2.122 l -4.12,4.126 c -0.293,0.292 -0.677,0.439 -1.062,0.439 z"
                     style="fill:#ffd00b;fill-opacity:1"
                     inkscape:connector-curvature="0" />
                </g>
              </g>
            </g>
          </g>
        </g>
      </g>
      <g
         transform="translate(-1.6789061)"
         id="g1708">
        <path
           inkscape:connector-curvature="0"
           style="fill:#33363a;stroke-width:0.22348644"
           d="m -87.404315,72.409722 c 0,-0.08582 -0.03263,-0.171637 -0.09811,-0.237119 l -2.963206,-2.962982 c -0.130742,-0.130963 -0.343054,-0.130963 -0.474017,0 -0.130961,0.130963 -0.130961,0.343052 0,0.474014 l 2.725864,2.726087 -2.725864,2.726088 c -0.130961,0.130963 -0.130961,0.343052 0,0.474015 0.130963,0.130963 0.343275,0.130963 0.474017,0 l 2.962981,-2.963207 c 0.06548,-0.06548 0.09834,-0.1513 0.09834,-0.236896 z"
           id="path853" />
        <text
           xml:space="preserve"
           style="font-style:normal;font-variant:normal;font-weight:normal;font-stretch:normal;font-size:8.92069244px;line-height:1.25;font-family:Rajdhani;-inkscape-font-specification:Rajdhani;letter-spacing:0px;word-spacing:0px;fill:#33363a;fill-opacity:1;stroke:none;stroke-width:0.22301729"
           x="-116.91299"
           y="75.425285"
           id="text1702"><tspan
             sodipodi:role="line"
             id="tspan1700"
             x="-116.91299"
             y="75.425285"
             style="font-style:normal;font-variant:normal;font-weight:600;font-stretch:normal;font-family:Rajdhani;-inkscape-font-specification:'Rajdhani Semi-Bold';fill:#33363a;fill-opacity:1;stroke-width:0.22301729">START</tspan></text>
      </g>
    </g>
  </g>
</svg>
