<?xml version="1.0" encoding="UTF-8" standalone="no"?>
<!-- Created with Inkscape (http://www.inkscape.org/) -->

<svg
   xmlns:dc="http://purl.org/dc/elements/1.1/"
   xmlns:cc="http://creativecommons.org/ns#"
   xmlns:rdf="http://www.w3.org/1999/02/22-rdf-syntax-ns#"
   xmlns:svg="http://www.w3.org/2000/svg"
   xmlns="http://www.w3.org/2000/svg"
   xmlns:sodipodi="http://sodipodi.sourceforge.net/DTD/sodipodi-0.dtd"
   xmlns:inkscape="http://www.inkscape.org/namespaces/inkscape"
   width="35.960842mm"
   height="27.868298mm"
   viewBox="0 0 35.960842 27.868297"
   version="1.1"
   id="svg1037"
   inkscape:version="0.92.2 (5c3e80d, 2017-08-06)"
   sodipodi:docname="start.svg">
  <defs
     id="defs1031" />
  <sodipodi:namedview
     id="base"
     pagecolor="#ffffff"
     bordercolor="#666666"
     borderopacity="1.0"
     inkscape:pageopacity="0.0"
     inkscape:pageshadow="2"
     inkscape:zoom="3.959798"
     inkscape:cx="21.701748"
     inkscape:cy="41.910301"
     inkscape:document-units="mm"
     inkscape:current-layer="layer1"
     showgrid="false"
     fit-margin-top="0"
     fit-margin-left="0"
     fit-margin-right="0"
     fit-margin-bottom="0"
     inkscape:window-width="1366"
     inkscape:window-height="704"
     inkscape:window-x="0"
     inkscape:window-y="27"
     inkscape:window-maximized="1" />
  <metadata
     id="metadata1034">
    <rdf:RDF>
      <cc:Work
         rdf:about="">
        <dc:format>image/svg+xml</dc:format>
        <dc:type
           rdf:resource="http://purl.org/dc/dcmitype/StillImage" />
        <dc:title />
      </cc:Work>
    </rdf:RDF>
  </metadata>
  <g
     inkscape:label="Layer 1"
     inkscape:groupmode="layer"
     id="layer1"
     transform="translate(121.5459,-59.266149)">
    <g
       id="g908">
      <g
         id="g927"
         transform="matrix(0.26458333,0,0,0.26458333,-120.35527,57.204251)">
        <g
           id="g817">
          <path
             sodipodi:nodetypes="sssssssss"
             id="path815"
             d="m 131.415,74.633 c 0,6.702 -5.434,12.137 -12.136,12.137 H 7.6349999 c -6.70099998,0 -12.135,-5.435 -12.135,-12.137 V 45.555 c 0,-6.703 5.43400002,-12.136 12.135,-12.136 H 119.279 c 6.702,0 12.136,5.433 12.136,12.136 z"
             style="fill:#ffd00b"
             inkscape:connector-curvature="0" />
        </g>
        <g
           id="g821">
          <path
             sodipodi:nodetypes="sssssssss"
             id="path819"
             d="M 119.279,33.419 H 7.6349999 c -6.70099998,0 -12.135,5.433 -12.135,12.136 v 23.828 c 0,6.702 5.43400002,12.137 12.135,12.137 H 119.279 c 6.702,0 12.136,-5.435 12.136,-12.137 V 45.555 c 0,-6.703 -5.434,-12.136 -12.136,-12.136 z"
             style="fill:#ff9c0d"
             inkscape:connector-curvature="0" />
        </g>
        <g
           id="g825" />
        <g
           id="g847" />
        <g
           id="g851" />
        <g
           id="g855" />
        <g
           id="g925">
          <g
             id="g889">
            <g
               id="g865">
              <g
                 id="g859">
                <path
                   id="path857"
                   d="m 63.46,11.785 c -0.829,0 -1.5,-0.671 -1.5,-1.5 V 9.293 c 0,-0.829 0.671,-1.5 1.5,-1.5 0.829,0 1.5,0.671 1.5,1.5 v 0.992 c 0,0.829 -0.671,1.5 -1.5,1.5 z"
                   style="fill:#ffd00b;fill-opacity:1"
                   inkscape:connector-curvature="0" />
              </g>
              <g
                 id="g863">
                <path
                   id="path861"
                   d="m 63.459,26.65 v 0 c -0.829,0 -1.5,-0.672 -1.5,-1.5 l 10e-4,-5.824 c 0,-0.828 0.672,-1.5 1.5,-1.5 v 0 c 0.828,0 1.5,0.672 1.5,1.5 l -10e-4,5.824 c 0,0.829 -0.672,1.5 -1.5,1.5 z"
                   style="fill:#ffd00b;fill-opacity:1"
                   inkscape:connector-curvature="0" />
              </g>
            </g>
            <g
               id="g887">
              <g
                 id="g875">
                <g
                   id="g869">
                  <path
                     id="path867"
                     d="m 36.1,17.119 c -0.381,0 -0.763,-0.145 -1.055,-0.434 l -0.708,-0.701 c -0.589,-0.583 -0.594,-1.532 -0.011,-2.121 0.582,-0.589 1.532,-0.594 2.121,-0.011 l 0.708,0.701 c 0.589,0.583 0.594,1.532 0.011,2.121 -0.293,0.297 -0.68,0.445 -1.066,0.445 z"
                     style="fill:#ffd00b;fill-opacity:1"
                     inkscape:connector-curvature="0" />
                </g>
                <g
                   id="g873">
                  <path
                     id="path871"
                     d="m 46.612,27.635 c -0.384,0 -0.768,-0.146 -1.061,-0.44 l -4.123,-4.127 c -0.585,-0.586 -0.585,-1.536 0.001,-2.121 0.586,-0.585 1.536,-0.585 2.121,0.001 l 4.123,4.127 c 0.585,0.586 0.585,1.536 -0.001,2.121 -0.293,0.292 -0.676,0.439 -1.06,0.439 z"
                     style="fill:#ffd00b;fill-opacity:1"
                     inkscape:connector-curvature="0" />
                </g>
              </g>
              <g
                 id="g885">
                <g
                   id="g879">
                  <path
                     id="path877"
                     d="m 90.818,17.123 c -0.384,0 -0.768,-0.146 -1.061,-0.44 -0.585,-0.586 -0.585,-1.536 10e-4,-2.121 l 0.706,-0.705 c 0.585,-0.585 1.536,-0.586 2.121,0.001 0.585,0.586 0.585,1.536 -10e-4,2.121 l -0.706,0.705 c -0.292,0.293 -0.676,0.439 -1.06,0.439 z"
                     style="fill:#ffd00b;fill-opacity:1"
                     inkscape:connector-curvature="0" />
                </g>
                <g
                   id="g883">
                  <path
                     id="path881"
                     d="m 80.309,27.636 c -0.383,0 -0.767,-0.146 -1.06,-0.438 -0.586,-0.585 -0.587,-1.535 -10e-4,-2.122 l 4.12,-4.126 c 0.585,-0.585 1.535,-0.588 2.122,-10e-4 0.586,0.585 0.587,1.535 0.001,2.122 l -4.12,4.126 c -0.293,0.292 -0.678,0.439 -1.062,0.439 z"
                     style="fill:#ffd00b;fill-opacity:1"
                     inkscape:connector-curvature="0" />
                </g>
              </g>
            </g>
          </g>
          <g
             id="g923">
            <g
               id="g899">
              <g
                 id="g893">
                <path
                   id="path891"
                   d="m 63.455,113.122 c -0.829,0 -1.5,-0.671 -1.5,-1.5 v -0.992 c 0,-0.829 0.671,-1.5 1.5,-1.5 0.829,0 1.5,0.671 1.5,1.5 v 0.992 c 0,0.829 -0.672,1.5 -1.5,1.5 z"
                   style="fill:#ffd00b;fill-opacity:1"
                   inkscape:connector-curvature="0" />
              </g>
              <g
                 id="g897">
                <path
                   id="path895"
                   d="m 63.455,103.089 v 0 c -0.829,0 -1.5,-0.672 -1.5,-1.5 l 0.001,-5.824 c 0,-0.828 0.672,-1.5 1.5,-1.5 v 0 c 0.828,0 1.5,0.672 1.5,1.5 l -0.001,5.824 c 0,0.828 -0.672,1.5 -1.5,1.5 z"
                   style="fill:#ffd00b;fill-opacity:1"
                   inkscape:connector-curvature="0" />
              </g>
            </g>
            <g
               id="g921">
              <g
                 id="g909">
                <g
                   id="g903">
                  <path
                     id="path901"
                     d="m 91.524,107.497 c -0.381,0 -0.763,-0.145 -1.055,-0.434 l -0.708,-0.701 c -0.589,-0.583 -0.594,-1.532 -0.011,-2.121 0.582,-0.589 1.532,-0.593 2.121,-0.011 l 0.708,0.701 c 0.589,0.583 0.594,1.532 0.011,2.121 -0.293,0.297 -0.68,0.445 -1.066,0.445 z"
                     style="fill:#ffd00b;fill-opacity:1"
                     inkscape:connector-curvature="0" />
                </g>
                <g
                   id="g907">
                  <path
                     id="path905"
                     d="m 84.426,100.407 c -0.384,0 -0.768,-0.146 -1.061,-0.44 L 79.242,95.84 c -0.585,-0.586 -0.585,-1.536 10e-4,-2.121 0.586,-0.585 1.535,-0.585 2.121,0.001 l 4.123,4.127 c 0.585,0.586 0.585,1.536 -10e-4,2.121 -0.293,0.293 -0.676,0.439 -1.06,0.439 z"
                     style="fill:#ffd00b;fill-opacity:1"
                     inkscape:connector-curvature="0" />
                </g>
              </g>
              <g
                 id="g919">
                <g
                   id="g913">
                  <path
                     id="path911"
                     d="m 35.391,107.497 c -0.384,0 -0.768,-0.146 -1.061,-0.44 -0.585,-0.586 -0.585,-1.536 0.001,-2.121 l 0.706,-0.705 c 0.585,-0.585 1.536,-0.585 2.121,0.001 0.585,0.586 0.585,1.536 -0.001,2.121 l -0.706,0.705 c -0.292,0.293 -0.676,0.439 -1.06,0.439 z"
                     style="fill:#ffd00b;fill-opacity:1"
                     inkscape:connector-curvature="0" />
                </g>
                <g
                   id="g917">
                  <path
                     id="path915"
                     d="m 42.486,100.405 c -0.383,0 -0.767,-0.146 -1.06,-0.438 -0.586,-0.585 -0.587,-1.535 -0.001,-2.122 l 4.12,-4.126 c 0.584,-0.586 1.534,-0.587 2.122,-10e-4 0.586,0.585 0.587,1.535 10e-4,2.122 l -4.12,4.126 c -0.293,0.292 -0.677,0.439 -1.062,0.439 z"
                     style="fill:#ffd00b;fill-opacity:1"
                     inkscape:connector-curvature="0" />
                </g>
              </g>
            </g>
          </g>
        </g>
      </g>
      <g
         transform="translate(-1.6789061)"
         id="g1708">
        <path
           inkscape:connector-curvature="0"
           style="fill:#33363a;stroke-width:0.22348644"
           d="m -87.404315,72.409722 c 0,-0.08582 -0.03263,-0.171637 -0.09811,-0.237119 l -2.963206,-2.962982 c -0.130742,-0.130963 -0.343054,-0.130963 -0.474017,0 -0.130961,0.130963 -0.130961,0.343052 0,0.474014 l 2.725864,2.726087 -2.725864,2.726088 c -0.130961,0.130963 -0.130961,0.343052 0,0.474015 0.130963,0.130963 0.343275,0.130963 0.474017,0 l 2.962981,-2.963207 c 0.06548,-0.06548 0.09834,-0.1513 0.09834,-0.236896 z"
           id="path853" />
        <g
           aria-label="START"
           style="font-style:normal;font-variant:normal;font-weight:normal;font-stretch:normal;font-size:8.92069244px;line-height:1.25;font-family:Rajdhani;-inkscape-font-specification:Rajdhani;letter-spacing:0px;word-spacing:0px;fill:#33363a;fill-opacity:1;stroke:none;stroke-width:0.22301729"
           id="text1702">
          <path
             d="m -116.36882,74.033657 v -0.231938 q 0,-0.151651 0.15165,-0.151651 h 0.57092 q 0.15165,0 0.15165,0.151651 v 0.160573 q 0,0.374669 0.16058,0.544162 0.16949,0.160572 0.55308,0.160572 h 0.61553 q 0.38359,0 0.55308,-0.169493 0.16949,-0.178414 0.16949,-0.570924 v -0.205176 q 0,-0.285462 -0.22301,-0.446035 -0.2141,-0.169493 -0.53525,-0.214096 -0.32114,-0.05352 -0.70473,-0.142731 -0.38359,-0.08921 -0.70474,-0.205176 -0.32114,-0.115969 -0.54416,-0.437114 -0.21409,-0.321145 -0.21409,-0.820704 v -0.374669 q 0,-0.65121 0.36574,-1.016959 0.37467,-0.374669 1.02588,-0.374669 h 0.9456 q 0.66013,0 1.02588,0.374669 0.37467,0.365749 0.37467,1.016959 v 0.196255 q 0,0.151652 -0.15166,0.151652 h -0.57092 q -0.15165,0 -0.15165,-0.151652 v -0.115969 q 0,-0.383589 -0.1695,-0.544162 -0.16057,-0.169493 -0.54416,-0.169493 h -0.562 q -0.38359,0 -0.55308,0.178414 -0.16058,0.169493 -0.16058,0.588766 v 0.276541 q 0,0.401431 0.57985,0.544162 0.2587,0.06244 0.562,0.107049 0.31223,0.0446 0.62445,0.13381 0.31222,0.08921 0.57092,0.240859 0.2587,0.142731 0.41928,0.446034 0.16057,0.294383 0.16057,0.722576 v 0.347907 q 0,0.651211 -0.37467,1.02588 -0.36575,0.365748 -1.01696,0.365748 h -0.99912 q -0.65121,0 -1.02588,-0.365748 -0.37466,-0.374669 -0.37466,-1.02588 z"
             style="font-style:normal;font-variant:normal;font-weight:600;font-stretch:normal;font-family:Rajdhani;-inkscape-font-specification:'Rajdhani Semi-Bold';fill:#33363a;fill-opacity:1;stroke-width:0.22301729"
             id="path1131" />
          <path
             d="m -109.79581,75.425285 h -0.562 q -0.16057,0 -0.16057,-0.151651 v -4.736888 q 0,-0.08921 -0.0892,-0.08921 h -1.12401 q -0.16057,0 -0.16057,-0.151652 v -0.454955 q 0,-0.151652 0.16057,-0.151652 h 3.30958 q 0.16057,0 0.16057,0.151652 v 0.454955 q 0,0.151652 -0.16057,0.151652 h -1.12401 q -0.0981,0 -0.0981,0.08921 v 4.736888 q 0,0.151651 -0.15165,0.151651 z"
             style="font-style:normal;font-variant:normal;font-weight:600;font-stretch:normal;font-family:Rajdhani;-inkscape-font-specification:'Rajdhani Semi-Bold';fill:#33363a;fill-opacity:1;stroke-width:0.22301729"
             id="path1133" />
          <path
             d="m -107.18567,75.425285 h -0.64229 q -0.12489,0 -0.0892,-0.151651 l 1.55221,-5.432702 q 0.0446,-0.151652 0.21409,-0.151652 h 0.89207 q 0.17842,0 0.2141,0.151652 l 1.5522,5.432702 q 0.0357,0.151651 -0.0981,0.151651 h -0.63337 q -0.0803,0 -0.11597,-0.02676 -0.0268,-0.03568 -0.0446,-0.124889 l -0.33899,-1.15969 h -1.96255 l -0.33899,1.15969 q -0.0357,0.151651 -0.16057,0.151651 z m 1.463,-4.879618 -0.78503,2.854621 h 1.61465 l -0.79394,-2.854621 z"
             style="font-style:normal;font-variant:normal;font-weight:600;font-stretch:normal;font-family:Rajdhani;-inkscape-font-specification:'Rajdhani Semi-Bold';fill:#33363a;fill-opacity:1;stroke-width:0.22301729"
             id="path1135" />
          <path
             d="m -101.88831,75.425285 h -0.562 q -0.15166,0 -0.15166,-0.151651 v -5.432702 q 0,-0.151652 0.15166,-0.151652 h 2.08744 q 0.651208,0 1.016957,0.374669 0.374669,0.365749 0.374669,1.016959 v 0.749338 q 0,1.02588 -0.847466,1.293501 v 0.03568 l 0.990197,2.087442 q 0.09813,0.178414 -0.115969,0.178414 h -0.553083 q -0.214097,0 -0.276542,-0.151651 l -0.954513,-2.05176 h -0.90099 q -0.10705,0 -0.10705,0.08921 v 1.962553 q 0,0.151651 -0.15165,0.151651 z m 0.24978,-2.917066 h 1.13293 q 0.660128,0 0.660128,-0.651211 V 71.10767 q 0,-0.660131 -0.660128,-0.660131 h -1.13293 q -0.0981,0 -0.0981,0.08921 v 1.882266 q 0,0.08921 0.0981,0.08921 z"
             style="font-style:normal;font-variant:normal;font-weight:600;font-stretch:normal;font-family:Rajdhani;-inkscape-font-specification:'Rajdhani Semi-Bold';fill:#33363a;fill-opacity:1;stroke-width:0.22301729"
             id="path1137" />
          <path
             d="m -96.188267,75.425285 h -0.562003 q -0.160573,0 -0.160573,-0.151651 v -4.736888 q 0,-0.08921 -0.08921,-0.08921 h -1.124007 q -0.160573,0 -0.160573,-0.151652 v -0.454955 q 0,-0.151652 0.160573,-0.151652 h 3.309577 q 0.160572,0 0.160572,0.151652 v 0.454955 q 0,0.151652 -0.160572,0.151652 h -1.124007 q -0.09813,0 -0.09813,0.08921 v 4.736888 q 0,0.151651 -0.151652,0.151651 z"
             style="font-style:normal;font-variant:normal;font-weight:600;font-stretch:normal;font-family:Rajdhani;-inkscape-font-specification:'Rajdhani Semi-Bold';fill:#33363a;fill-opacity:1;stroke-width:0.22301729"
             id="path1139" />
        </g>
      </g>
    </g>
    <g
       id="g1246">
      <g
         transform="matrix(0.26458333,0,0,0.26458333,-120.35527,57.204251)"
         id="g1228">
        <g
           id="g1144">
          <path
             inkscape:connector-curvature="0"
             style="fill:#ffd00b"
             d="m 131.415,74.633 c 0,6.702 -5.434,12.137 -12.136,12.137 H 7.6349999 c -6.70099998,0 -12.135,-5.435 -12.135,-12.137 V 45.555 c 0,-6.703 5.43400002,-12.136 12.135,-12.136 H 119.279 c 6.702,0 12.136,5.433 12.136,12.136 z"
             id="path1142"
             sodipodi:nodetypes="sssssssss" />
        </g>
        <g
           id="g1148">
          <path
             inkscape:connector-curvature="0"
             style="fill:#ff9c0d"
             d="M 119.279,33.419 H 7.6349999 c -6.70099998,0 -12.135,5.433 -12.135,12.136 v 23.828 c 0,6.702 5.43400002,12.137 12.135,12.137 H 119.279 c 6.702,0 12.136,-5.435 12.136,-12.137 V 45.555 c 0,-6.703 -5.434,-12.136 -12.136,-12.136 z"
             id="path1146"
             sodipodi:nodetypes="sssssssss" />
        </g>
        <g
           id="g1150" />
        <g
           id="g1152" />
        <g
           id="g1154" />
        <g
           id="g1156" />
        <g
           id="g1226">
          <g
             id="g1190">
            <g
               id="g1166">
              <g
                 id="g1160">
                <path
                   inkscape:connector-curvature="0"
                   style="fill:#ffd00b;fill-opacity:1"
                   d="m 63.46,11.785 c -0.829,0 -1.5,-0.671 -1.5,-1.5 V 9.293 c 0,-0.829 0.671,-1.5 1.5,-1.5 0.829,0 1.5,0.671 1.5,1.5 v 0.992 c 0,0.829 -0.671,1.5 -1.5,1.5 z"
                   id="path1158" />
              </g>
              <g
                 id="g1164">
                <path
                   inkscape:connector-curvature="0"
                   style="fill:#ffd00b;fill-opacity:1"
                   d="m 63.459,26.65 v 0 c -0.829,0 -1.5,-0.672 -1.5,-1.5 l 10e-4,-5.824 c 0,-0.828 0.672,-1.5 1.5,-1.5 v 0 c 0.828,0 1.5,0.672 1.5,1.5 l -10e-4,5.824 c 0,0.829 -0.672,1.5 -1.5,1.5 z"
                   id="path1162" />
              </g>
            </g>
            <g
               id="g1188">
              <g
                 id="g1176">
                <g
                   id="g1170">
                  <path
                     inkscape:connector-curvature="0"
                     style="fill:#ffd00b;fill-opacity:1"
                     d="m 36.1,17.119 c -0.381,0 -0.763,-0.145 -1.055,-0.434 l -0.708,-0.701 c -0.589,-0.583 -0.594,-1.532 -0.011,-2.121 0.582,-0.589 1.532,-0.594 2.121,-0.011 l 0.708,0.701 c 0.589,0.583 0.594,1.532 0.011,2.121 -0.293,0.297 -0.68,0.445 -1.066,0.445 z"
                     id="path1168" />
                </g>
                <g
                   id="g1174">
                  <path
                     inkscape:connector-curvature="0"
                     style="fill:#ffd00b;fill-opacity:1"
                     d="m 46.612,27.635 c -0.384,0 -0.768,-0.146 -1.061,-0.44 l -4.123,-4.127 c -0.585,-0.586 -0.585,-1.536 0.001,-2.121 0.586,-0.585 1.536,-0.585 2.121,0.001 l 4.123,4.127 c 0.585,0.586 0.585,1.536 -0.001,2.121 -0.293,0.292 -0.676,0.439 -1.06,0.439 z"
                     id="path1172" />
                </g>
              </g>
              <g
                 id="g1186">
                <g
                   id="g1180">
                  <path
                     inkscape:connector-curvature="0"
                     style="fill:#ffd00b;fill-opacity:1"
                     d="m 90.818,17.123 c -0.384,0 -0.768,-0.146 -1.061,-0.44 -0.585,-0.586 -0.585,-1.536 10e-4,-2.121 l 0.706,-0.705 c 0.585,-0.585 1.536,-0.586 2.121,0.001 0.585,0.586 0.585,1.536 -10e-4,2.121 l -0.706,0.705 c -0.292,0.293 -0.676,0.439 -1.06,0.439 z"
                     id="path1178" />
                </g>
                <g
                   id="g1184">
                  <path
                     inkscape:connector-curvature="0"
                     style="fill:#ffd00b;fill-opacity:1"
                     d="m 80.309,27.636 c -0.383,0 -0.767,-0.146 -1.06,-0.438 -0.586,-0.585 -0.587,-1.535 -10e-4,-2.122 l 4.12,-4.126 c 0.585,-0.585 1.535,-0.588 2.122,-10e-4 0.586,0.585 0.587,1.535 0.001,2.122 l -4.12,4.126 c -0.293,0.292 -0.678,0.439 -1.062,0.439 z"
                     id="path1182" />
                </g>
              </g>
            </g>
          </g>
          <g
             id="g1224">
            <g
               id="g1200">
              <g
                 id="g1194">
                <path
                   inkscape:connector-curvature="0"
                   style="fill:#ffd00b;fill-opacity:1"
                   d="m 63.455,113.122 c -0.829,0 -1.5,-0.671 -1.5,-1.5 v -0.992 c 0,-0.829 0.671,-1.5 1.5,-1.5 0.829,0 1.5,0.671 1.5,1.5 v 0.992 c 0,0.829 -0.672,1.5 -1.5,1.5 z"
                   id="path1192" />
              </g>
              <g
                 id="g1198">
                <path
                   inkscape:connector-curvature="0"
                   style="fill:#ffd00b;fill-opacity:1"
                   d="m 63.455,103.089 v 0 c -0.829,0 -1.5,-0.672 -1.5,-1.5 l 0.001,-5.824 c 0,-0.828 0.672,-1.5 1.5,-1.5 v 0 c 0.828,0 1.5,0.672 1.5,1.5 l -0.001,5.824 c 0,0.828 -0.672,1.5 -1.5,1.5 z"
                   id="path1196" />
              </g>
            </g>
            <g
               id="g1222">
              <g
                 id="g1210">
                <g
                   id="g1204">
                  <path
                     inkscape:connector-curvature="0"
                     style="fill:#ffd00b;fill-opacity:1"
                     d="m 91.524,107.497 c -0.381,0 -0.763,-0.145 -1.055,-0.434 l -0.708,-0.701 c -0.589,-0.583 -0.594,-1.532 -0.011,-2.121 0.582,-0.589 1.532,-0.593 2.121,-0.011 l 0.708,0.701 c 0.589,0.583 0.594,1.532 0.011,2.121 -0.293,0.297 -0.68,0.445 -1.066,0.445 z"
                     id="path1202" />
                </g>
                <g
                   id="g1208">
                  <path
                     inkscape:connector-curvature="0"
                     style="fill:#ffd00b;fill-opacity:1"
                     d="m 84.426,100.407 c -0.384,0 -0.768,-0.146 -1.061,-0.44 L 79.242,95.84 c -0.585,-0.586 -0.585,-1.536 10e-4,-2.121 0.586,-0.585 1.535,-0.585 2.121,0.001 l 4.123,4.127 c 0.585,0.586 0.585,1.536 -10e-4,2.121 -0.293,0.293 -0.676,0.439 -1.06,0.439 z"
                     id="path1206" />
                </g>
              </g>
              <g
                 id="g1220">
                <g
                   id="g1214">
                  <path
                     inkscape:connector-curvature="0"
                     style="fill:#ffd00b;fill-opacity:1"
                     d="m 35.391,107.497 c -0.384,0 -0.768,-0.146 -1.061,-0.44 -0.585,-0.586 -0.585,-1.536 0.001,-2.121 l 0.706,-0.705 c 0.585,-0.585 1.536,-0.585 2.121,0.001 0.585,0.586 0.585,1.536 -0.001,2.121 l -0.706,0.705 c -0.292,0.293 -0.676,0.439 -1.06,0.439 z"
                     id="path1212" />
                </g>
                <g
                   id="g1218">
                  <path
                     inkscape:connector-curvature="0"
                     style="fill:#ffd00b;fill-opacity:1"
                     d="m 42.486,100.405 c -0.383,0 -0.767,-0.146 -1.06,-0.438 -0.586,-0.585 -0.587,-1.535 -0.001,-2.122 l 4.12,-4.126 c 0.584,-0.586 1.534,-0.587 2.122,-10e-4 0.586,0.585 0.587,1.535 10e-4,2.122 l -4.12,4.126 c -0.293,0.292 -0.677,0.439 -1.062,0.439 z"
                     id="path1216" />
                </g>
              </g>
            </g>
          </g>
        </g>
      </g>
      <g
         id="g1244"
         transform="translate(-1.6789061)">
        <path
           id="path1230"
           d="m -87.404315,72.409722 c 0,-0.08582 -0.03263,-0.171637 -0.09811,-0.237119 l -2.963206,-2.962982 c -0.130742,-0.130963 -0.343054,-0.130963 -0.474017,0 -0.130961,0.130963 -0.130961,0.343052 0,0.474014 l 2.725864,2.726087 -2.725864,2.726088 c -0.130961,0.130963 -0.130961,0.343052 0,0.474015 0.130963,0.130963 0.343275,0.130963 0.474017,0 l 2.962981,-2.963207 c 0.06548,-0.06548 0.09834,-0.1513 0.09834,-0.236896 z"
           style="fill:#33363a;stroke-width:0.22348644"
           inkscape:connector-curvature="0" />
        <g
           id="g1242"
           style="font-style:normal;font-variant:normal;font-weight:normal;font-stretch:normal;font-size:8.92069244px;line-height:1.25;font-family:Rajdhani;-inkscape-font-specification:Rajdhani;letter-spacing:0px;word-spacing:0px;fill:#33363a;fill-opacity:1;stroke:none;stroke-width:0.22301729"
           aria-label="START">
          <path
             id="path1232"
             style="font-style:normal;font-variant:normal;font-weight:600;font-stretch:normal;font-family:Rajdhani;-inkscape-font-specification:'Rajdhani Semi-Bold';fill:#33363a;fill-opacity:1;stroke-width:0.22301729"
             d="m -116.36882,74.033657 v -0.231938 q 0,-0.151651 0.15165,-0.151651 h 0.57092 q 0.15165,0 0.15165,0.151651 v 0.160573 q 0,0.374669 0.16058,0.544162 0.16949,0.160572 0.55308,0.160572 h 0.61553 q 0.38359,0 0.55308,-0.169493 0.16949,-0.178414 0.16949,-0.570924 v -0.205176 q 0,-0.285462 -0.22301,-0.446035 -0.2141,-0.169493 -0.53525,-0.214096 -0.32114,-0.05352 -0.70473,-0.142731 -0.38359,-0.08921 -0.70474,-0.205176 -0.32114,-0.115969 -0.54416,-0.437114 -0.21409,-0.321145 -0.21409,-0.820704 v -0.374669 q 0,-0.65121 0.36574,-1.016959 0.37467,-0.374669 1.02588,-0.374669 h 0.9456 q 0.66013,0 1.02588,0.374669 0.37467,0.365749 0.37467,1.016959 v 0.196255 q 0,0.151652 -0.15166,0.151652 h -0.57092 q -0.15165,0 -0.15165,-0.151652 v -0.115969 q 0,-0.383589 -0.1695,-0.544162 -0.16057,-0.169493 -0.54416,-0.169493 h -0.562 q -0.38359,0 -0.55308,0.178414 -0.16058,0.169493 -0.16058,0.588766 v 0.276541 q 0,0.401431 0.57985,0.544162 0.2587,0.06244 0.562,0.107049 0.31223,0.0446 0.62445,0.13381 0.31222,0.08921 0.57092,0.240859 0.2587,0.142731 0.41928,0.446034 0.16057,0.294383 0.16057,0.722576 v 0.347907 q 0,0.651211 -0.37467,1.02588 -0.36575,0.365748 -1.01696,0.365748 h -0.99912 q -0.65121,0 -1.02588,-0.365748 -0.37466,-0.374669 -0.37466,-1.02588 z" />
          <path
             id="path1234"
             style="font-style:normal;font-variant:normal;font-weight:600;font-stretch:normal;font-family:Rajdhani;-inkscape-font-specification:'Rajdhani Semi-Bold';fill:#33363a;fill-opacity:1;stroke-width:0.22301729"
             d="m -109.79581,75.425285 h -0.562 q -0.16057,0 -0.16057,-0.151651 v -4.736888 q 0,-0.08921 -0.0892,-0.08921 h -1.12401 q -0.16057,0 -0.16057,-0.151652 v -0.454955 q 0,-0.151652 0.16057,-0.151652 h 3.30958 q 0.16057,0 0.16057,0.151652 v 0.454955 q 0,0.151652 -0.16057,0.151652 h -1.12401 q -0.0981,0 -0.0981,0.08921 v 4.736888 q 0,0.151651 -0.15165,0.151651 z" />
          <path
             id="path1236"
             style="font-style:normal;font-variant:normal;font-weight:600;font-stretch:normal;font-family:Rajdhani;-inkscape-font-specification:'Rajdhani Semi-Bold';fill:#33363a;fill-opacity:1;stroke-width:0.22301729"
             d="m -107.18567,75.425285 h -0.64229 q -0.12489,0 -0.0892,-0.151651 l 1.55221,-5.432702 q 0.0446,-0.151652 0.21409,-0.151652 h 0.89207 q 0.17842,0 0.2141,0.151652 l 1.5522,5.432702 q 0.0357,0.151651 -0.0981,0.151651 h -0.63337 q -0.0803,0 -0.11597,-0.02676 -0.0268,-0.03568 -0.0446,-0.124889 l -0.33899,-1.15969 h -1.96255 l -0.33899,1.15969 q -0.0357,0.151651 -0.16057,0.151651 z m 1.463,-4.879618 -0.78503,2.854621 h 1.61465 l -0.79394,-2.854621 z" />
          <path
             id="path1238"
             style="font-style:normal;font-variant:normal;font-weight:600;font-stretch:normal;font-family:Rajdhani;-inkscape-font-specification:'Rajdhani Semi-Bold';fill:#33363a;fill-opacity:1;stroke-width:0.22301729"
             d="m -101.88831,75.425285 h -0.562 q -0.15166,0 -0.15166,-0.151651 v -5.432702 q 0,-0.151652 0.15166,-0.151652 h 2.08744 q 0.651208,0 1.016957,0.374669 0.374669,0.365749 0.374669,1.016959 v 0.749338 q 0,1.02588 -0.847466,1.293501 v 0.03568 l 0.990197,2.087442 q 0.09813,0.178414 -0.115969,0.178414 h -0.553083 q -0.214097,0 -0.276542,-0.151651 l -0.954513,-2.05176 h -0.90099 q -0.10705,0 -0.10705,0.08921 v 1.962553 q 0,0.151651 -0.15165,0.151651 z m 0.24978,-2.917066 h 1.13293 q 0.660128,0 0.660128,-0.651211 V 71.10767 q 0,-0.660131 -0.660128,-0.660131 h -1.13293 q -0.0981,0 -0.0981,0.08921 v 1.882266 q 0,0.08921 0.0981,0.08921 z" />
          <path
             id="path1240"
             style="font-style:normal;font-variant:normal;font-weight:600;font-stretch:normal;font-family:Rajdhani;-inkscape-font-specification:'Rajdhani Semi-Bold';fill:#33363a;fill-opacity:1;stroke-width:0.22301729"
             d="m -96.188267,75.425285 h -0.562003 q -0.160573,0 -0.160573,-0.151651 v -4.736888 q 0,-0.08921 -0.08921,-0.08921 h -1.124007 q -0.160573,0 -0.160573,-0.151652 v -0.454955 q 0,-0.151652 0.160573,-0.151652 h 3.309577 q 0.160572,0 0.160572,0.151652 v 0.454955 q 0,0.151652 -0.160572,0.151652 h -1.124007 q -0.09813,0 -0.09813,0.08921 v 4.736888 q 0,0.151651 -0.151652,0.151651 z" />
        </g>
      </g>
    </g>
  </g>
</svg>
