<?xml version="1.0" encoding="UTF-8" standalone="no"?>
<!-- Created with Inkscape (http://www.inkscape.org/) -->

<svg
   xmlns:dc="http://purl.org/dc/elements/1.1/"
   xmlns:cc="http://creativecommons.org/ns#"
   xmlns:rdf="http://www.w3.org/1999/02/22-rdf-syntax-ns#"
   xmlns:svg="http://www.w3.org/2000/svg"
   xmlns="http://www.w3.org/2000/svg"
   xmlns:sodipodi="http://sodipodi.sourceforge.net/DTD/sodipodi-0.dtd"
   xmlns:inkscape="http://www.inkscape.org/namespaces/inkscape"
   width="53.124096mm"
   height="17.110533mm"
   viewBox="0 0 53.124096 17.110532"
   version="1.1"
   id="svg1730"
   inkscape:version="0.92.2 (5c3e80d, 2017-08-06)"
   sodipodi:docname="title.svg">
  <defs
     id="defs1724" />
  <sodipodi:namedview
     id="base"
     pagecolor="#ffffff"
     bordercolor="#666666"
     borderopacity="1.0"
     inkscape:pageopacity="0.0"
     inkscape:pageshadow="2"
     inkscape:zoom="1.979899"
     inkscape:cx="103.8332"
     inkscape:cy="21.287255"
     inkscape:document-units="mm"
     inkscape:current-layer="layer1"
     showgrid="false"
     inkscape:window-width="1366"
     inkscape:window-height="704"
     inkscape:window-x="0"
     inkscape:window-y="27"
     inkscape:window-maximized="1"
     fit-margin-top="0"
     fit-margin-left="0"
     fit-margin-right="0"
     fit-margin-bottom="0" />
  <metadata
     id="metadata1727">
    <rdf:RDF>
      <cc:Work
         rdf:about="">
        <dc:format>image/svg+xml</dc:format>
        <dc:type
           rdf:resource="http://purl.org/dc/dcmitype/StillImage" />
        <dc:title></dc:title>
      </cc:Work>
    </rdf:RDF>
  </metadata>
  <g
     inkscape:label="Layer 1"
     inkscape:groupmode="layer"
     id="layer1"
     transform="translate(40.323725,-66.937296)">
    <text
       xml:space="preserve"
       style="font-style:normal;font-variant:normal;font-weight:normal;font-stretch:normal;font-size:10.58333302px;line-height:1.25;font-family:Rajdhani;-inkscape-font-specification:Rajdhani;letter-spacing:0px;word-spacing:0px;fill:#000000;fill-opacity:1;stroke:none;stroke-width:0.26458332"
       x="-79.375"
       y="143.35268"
       id="text2427"><tspan
         sodipodi:role="line"
         id="tspan2425"
         x="-79.375"
         y="152.38914"
         style="stroke-width:0.26458332" /></text>
    <g
       id="g2514"
       transform="matrix(1.2029116,0,0,1.2029116,5.1186952,-13.582349)">
      <g
         transform="matrix(0.26458333,0,0,0.26458333,-32.485357,56.904557)"
         id="g1641">
        <g
           id="g1530">
          <g
             id="g1420">
            <path
               sodipodi:nodetypes="sssssssss"
               inkscape:connector-curvature="0"
               style="fill:#ffd00b"
               d="m 145.415,68.633 c 0,6.702 -5.434,12.137 -12.136,12.137 H -6.3650003 C -13.066,80.77 -18.5,75.335 -18.5,68.633 V 51.555 c 0,-6.703 5.434,-12.136 12.1349997,-12.136 H 133.279 c 6.702,0 12.136,5.433 12.136,12.136 z"
               id="path1418" />
          </g>
          <g
             id="g1424">
            <path
               sodipodi:nodetypes="sssssssss"
               inkscape:connector-curvature="0"
               style="fill:#ff9c0d"
               d="M 133.279,39.419 H -6.3650003 C -13.066,39.419 -18.5,44.852 -18.5,51.555 v 11.828 c 0,6.702 5.434,12.137 12.1349997,12.137 H 133.279 c 6.702,0 12.136,-5.435 12.136,-12.137 V 51.555 c 0,-6.703 -5.434,-12.136 -12.136,-12.136 z"
               id="path1422" />
          </g>
          <g
             id="g1428">
            <path
               sodipodi:nodetypes="ssssssssssssssssss"
               inkscape:connector-curvature="0"
               style="fill:#33363a"
               d="M 133.279,82.27 H -6.3650003 C -13.883,82.27 -20,76.152 -20,68.633 V 51.555 c 0,-7.519 6.117,-13.636 13.6349997,-13.636 H 133.279 c 7.519,0 13.636,6.117 13.636,13.636 v 17.078 c 0,7.519 -6.117,13.637 -13.636,13.637 z M -6.3650003,40.919 C -12.229,40.919 -17,45.69 -17,51.555 v 17.078 c 0,5.865 4.771,10.637 10.6349997,10.637 H 133.279 c 5.865,0 10.636,-4.771 10.636,-10.637 V 51.555 c 0,-5.865 -4.771,-10.636 -10.636,-10.636 z"
               id="path1426" />
          </g>
          <g
             id="g1450" />
          <g
             id="g1454">
            <polyline
               transform="translate(0,-6)"
               style="fill:#ffd00b"
               points="76.716,82.922 63.458,96.18 50.199,82.922   "
               id="polyline1452" />
          </g>
          <g
             id="g1458">
            <path
               inkscape:connector-curvature="0"
               style="fill:#33363a"
               d="m 63.458,91.68 c -0.384,0 -0.768,-0.146 -1.061,-0.439 L 49.139,77.982 c -0.586,-0.585 -0.586,-1.535 0,-2.121 0.586,-0.586 1.535,-0.586 2.121,0 L 63.458,88.058 75.656,75.861 c 0.586,-0.586 1.535,-0.586 2.121,0 0.586,0.586 0.586,1.536 0,2.121 L 64.518,91.24 c -0.293,0.293 -0.677,0.44 -1.06,0.44 z"
               id="path1456" />
          </g>
          <g
             id="g1528">
            <g
               id="g1492">
              <g
                 id="g1468">
                <g
                   id="g1462" />
                <g
                   id="g1466" />
              </g>
              <g
                 id="g1490">
                <g
                   id="g1478">
                  <g
                     id="g1472" />
                  <g
                     id="g1476" />
                </g>
                <g
                   id="g1488">
                  <g
                     id="g1482" />
                  <g
                     id="g1486" />
                </g>
              </g>
            </g>
            <g
               id="g1526">
              <g
                 id="g1502">
                <g
                   id="g1496" />
                <g
                   id="g1500" />
              </g>
              <g
                 id="g1524">
                <g
                   id="g1512">
                  <g
                     id="g1506" />
                  <g
                     id="g1510" />
                </g>
                <g
                   id="g1522">
                  <g
                     id="g1516" />
                  <g
                     id="g1520" />
                </g>
              </g>
            </g>
          </g>
        </g>
        <g
           id="g1532" />
        <g
           id="g1534" />
        <g
           id="g1536" />
        <g
           id="g1538" />
        <g
           id="g1540" />
        <g
           id="g1542" />
        <g
           id="g1544" />
        <g
           id="g1546" />
        <g
           id="g1548" />
        <g
           id="g1550" />
        <g
           id="g1552" />
        <g
           id="g1554" />
        <g
           id="g1556" />
        <g
           id="g1558" />
        <g
           id="g1560" />
      </g>
      <text
         id="text2431"
         y="74.522423"
         x="-33.822895"
         style="font-style:normal;font-variant:normal;font-weight:bold;font-stretch:normal;font-size:5.3432703px;line-height:1.25;font-family:Rajdhani;-inkscape-font-specification:'Rajdhani Bold';letter-spacing:0px;word-spacing:0px;fill:#33363a;fill-opacity:1;stroke:none;stroke-width:0.13358176"
         xml:space="preserve"><tspan
           style="font-style:normal;font-variant:normal;font-weight:bold;font-stretch:normal;font-family:Rajdhani;-inkscape-font-specification:'Rajdhani Bold';fill:#33363a;fill-opacity:1;stroke-width:0.13358176"
           y="74.522423"
           x="-33.822895"
           id="tspan2429"
           sodipodi:role="line">MATCHING GAME</tspan></text>
    </g>
  </g>
</svg>
