<?xml version="1.0" encoding="UTF-8" standalone="no"?>
<!-- Created with Inkscape (http://www.inkscape.org/) -->

<svg
   xmlns:dc="http://purl.org/dc/elements/1.1/"
   xmlns:cc="http://creativecommons.org/ns#"
   xmlns:rdf="http://www.w3.org/1999/02/22-rdf-syntax-ns#"
   xmlns:svg="http://www.w3.org/2000/svg"
   xmlns="http://www.w3.org/2000/svg"
   xmlns:sodipodi="http://sodipodi.sourceforge.net/DTD/sodipodi-0.dtd"
   xmlns:inkscape="http://www.inkscape.org/namespaces/inkscape"
   width="120.73214mm"
   height="72.439285mm"
   viewBox="0 0 120.73214 72.439285"
   version="1.1"
   id="svg8"
   inkscape:version="0.92.2 (30a58d1, 2017-08-07)"
   sodipodi:docname="congrats.svg">
  <defs
     id="defs2" />
  <sodipodi:namedview
     id="base"
     pagecolor="#ffffff"
     bordercolor="#666666"
     borderopacity="1.0"
     inkscape:pageopacity="0.0"
     inkscape:pageshadow="2"
     inkscape:zoom="0.35"
     inkscape:cx="221.45909"
     inkscape:cy="282.20471"
     inkscape:document-units="mm"
     inkscape:current-layer="layer1"
     showgrid="false"
     inkscape:window-width="1321"
     inkscape:window-height="747"
     inkscape:window-x="45"
     inkscape:window-y="21"
     inkscape:window-maximized="1"
     fit-margin-top="0"
     fit-margin-left="0"
     fit-margin-right="0"
     fit-margin-bottom="0" />
  <metadata
     id="metadata5">
    <rdf:RDF>
      <cc:Work
         rdf:about="">
        <dc:format>image/svg+xml</dc:format>
        <dc:type
           rdf:resource="http://purl.org/dc/dcmitype/StillImage" />
        <dc:title></dc:title>
      </cc:Work>
    </rdf:RDF>
  </metadata>
  <g
     inkscape:label="Layer 1"
     inkscape:groupmode="layer"
     id="layer1"
     transform="translate(20,-151.06071)">
    <text
       id="text823"
       y="121.32649"
       x="-146.74588"
       style="font-style:normal;font-weight:normal;font-size:11.76183319px;line-height:1.25;font-family:sans-serif;letter-spacing:0px;word-spacing:0px;fill:#000000;fill-opacity:1;stroke:none;stroke-width:0.29404584"
       xml:space="preserve"><tspan
         style="font-style:normal;font-variant:normal;font-weight:normal;font-stretch:normal;font-size:15.68244457px;font-family:Ubuntu;-inkscape-font-specification:Ubuntu;stroke-width:0.29404584"
         y="131.73296"
         x="-146.74588"
         id="tspan821"
         sodipodi:role="line" /></text>
    <g
       id="g998"
       transform="matrix(0.48292857,0,0,0.48292857,-10.341429,115.56546)">
      <rect
         ry="12.851191"
         y="73.5"
         x="-20"
         height="150"
         width="250"
         id="rect815"
         style="opacity:1;fill:#ffffff;fill-opacity:1;stroke:none;stroke-width:1.27672613;stroke-miterlimit:4;stroke-dasharray:none;stroke-opacity:1" />
      <text
         id="text819"
         y="96.380074"
         x="6.0098333"
         style="font-style:normal;font-weight:normal;font-size:11.76183319px;line-height:1.25;font-family:sans-serif;letter-spacing:0px;word-spacing:0px;fill:#4e3f2d;fill-opacity:1;stroke:none;stroke-width:0.29404584"
         xml:space="preserve"><tspan
           style="font-style:normal;font-variant:normal;font-weight:normal;font-stretch:normal;font-size:15.68244457px;font-family:Ubuntu;-inkscape-font-specification:Ubuntu;fill:#4e3f2d;fill-opacity:1;stroke-width:0.29404584"
           y="96.380074"
           x="6.0098333"
           id="tspan817"
           sodipodi:role="line">Congratulations, You WON !</tspan></text>
      <text
         transform="scale(1.017561,0.98274207)"
         id="text827"
         y="213.57881"
         x="45.170155"
         style="font-style:normal;font-weight:normal;font-size:9.41020966px;line-height:1.25;font-family:sans-serif;letter-spacing:0px;word-spacing:0px;fill:#4e3f2d;fill-opacity:0.64367819;stroke:none;stroke-width:0.23525523"
         xml:space="preserve"><tspan
           style="font-style:normal;font-variant:normal;font-weight:normal;font-stretch:normal;font-size:12.54694557px;font-family:Ubuntu;-inkscape-font-specification:Ubuntu;fill:#4e3f2d;fill-opacity:0.64367819;stroke-width:0.23525523"
           y="213.57881"
           x="45.170155"
           id="tspan825"
           sodipodi:role="line">Press r, to play again</tspan></text>
      <g
         transform="matrix(0.21248857,0,0,0.21248857,65.438492,106.93728)"
         id="g947">
        <path
           style="fill:#f7da70;stroke-width:0.81817931"
           d="m 92.658373,261.59341 c -63.92435,0 -115.9311,-52.00675 -115.9311,-115.93028 0,-28.73691 10.592967,-56.306281 29.8275447,-77.629671 5.3091653,-5.88598 14.3868653,-6.35398 20.2736653,-1.044 5.8868,5.30999 6.35398,14.38769 1.043997,20.27449 C 13.405433,103.30272 5.4363667,124.04193 5.4363667,145.66395 c 0,48.09422 39.1277893,87.222 87.2220063,87.222 7.928157,0 14.354947,6.4268 14.354947,14.35496 -8.1e-4,7.9257 -6.42761,14.3525 -14.354947,14.3525 z"
           id="path908"
           inkscape:connector-curvature="0" />
        <path
           style="opacity:0.1;stroke-width:0.81817931;enable-background:new"
           d="m 92.658373,232.88432 c -11.42751,0 -22.345296,-2.21236 -32.354902,-6.22553 -9.028609,5.16353 -16.651585,12.49278 -22.161205,21.29066 16.260496,8.70134 34.821712,13.64478 54.517747,13.64478 7.928147,0 14.354947,-6.4268 14.354947,-14.35496 -0.002,-7.92815 -6.42925,-14.35495 -14.356587,-14.35495 z"
           id="path910"
           inkscape:connector-curvature="0" />
        <path
           style="fill:#f7da70;stroke-width:0.81817931"
           d="m 239.34565,391.19956 v 0 c -12.93296,0 -23.4163,-10.48415 -23.4163,-23.41629 v -86.49546 h 46.83259 v 86.49546 c -8.2e-4,12.93296 -10.48333,23.41629 -23.41629,23.41629 z"
           id="path912"
           inkscape:connector-curvature="0" />
        <path
           style="fill:#7d7060;stroke-width:0.81817931"
           d="m 262.76112,350.60232 c -17.2824,0 -31.29209,-14.00968 -31.29209,-31.29208 0,-17.28159 14.00969,-31.29209 31.29209,-31.29209 z"
           id="path914"
           inkscape:connector-curvature="0" />
        <path
           style="opacity:0.07999998;stroke-width:0.81817931;enable-background:new"
           d="m 239.34565,391.19956 v 0 c -12.93296,0 -23.4163,-10.48415 -23.4163,-23.41629 v -86.49546 h 46.83259 v 86.49546 c -8.2e-4,12.93296 -10.48333,23.41629 -23.41629,23.41629 z"
           id="path916"
           inkscape:connector-curvature="0" />
        <path
           style="fill:#f7da70;stroke-width:0.81817931"
           d="m 212.80718,218.38045 h -94.51444 c -34.742337,0 -62.907345,28.16501 -62.907345,62.90736 v 86.49546 c 0,12.93296 10.48415,23.41629 23.416288,23.41629 12.93215,0 23.416297,-10.48415 23.416297,-23.41629 v -25.66874 c 5.13162,1.35245 10.51769,2.08063 16.07476,2.08063 h 29.85864 v 23.58811 c 0,12.93296 10.48415,23.41629 23.41629,23.41629 v 0 c 12.93296,0 23.41629,-10.48415 23.41629,-23.41629 v -23.62084 c 39.42316,-0.68972 71.17424,-32.84253 71.17424,-72.43096 v 0 c 0,-29.46427 -23.88593,-53.35102 -53.35102,-53.35102 z"
           id="path918"
           inkscape:connector-curvature="0" />
        <path
           style="fill:#7d7060;stroke-width:0.81817931"
           d="m 55.674213,275.32819 c -0.184909,1.96281 -0.288818,3.94853 -0.288818,5.96043 v 51.49621 c 15.86777,0 28.731188,-12.86341 28.731188,-28.73118 0,-15.77205 -12.707964,-28.57001 -28.44237,-28.72546 z"
           id="path920"
           inkscape:connector-curvature="0" />
        <path
           style="opacity:0.07999998;stroke-width:0.81817931;enable-background:new"
           d="m 212.80718,218.38045 h -94.51444 c -16.6884,0 -31.846807,6.51026 -43.107405,17.11468 18.084218,32.63226 54.756645,55.39319 97.800245,55.39319 h 90.59454 c 1.6699,-6.10443 2.57808,-12.52223 2.57808,-19.15603 v 0 c 0,-29.46509 -23.88593,-53.35184 -53.35102,-53.35184 z"
           id="path922"
           inkscape:connector-curvature="0" />
        <path
           style="fill:#f7da70;stroke-width:0.81817931"
           d="m 357.23056,0.97302935 -0.007,0.002 C 329.87347,7.9483694 303.2,17.341069 277.51163,29.027119 c -14.25678,-3.80044 -29.2851,-5.83443 -44.77405,-5.83443 v 0 c -15.48977,0 -30.51809,2.03399 -44.77404,5.83443 C 162.27516,17.340249 135.60252,7.9483694 108.2516,0.97502935 l -0.008,-0.002 C 88.115023,-4.1585916 68.784718,11.700179 69.882714,32.442659 v 0 c 1.527541,28.83182 5.673256,57.46319 12.376599,85.544741 -4.81499,11.30805 -8.21043,23.31811 -9.955606,35.8608 v 0 c -8.464065,60.83163 42.699953,114.71037 108.931573,114.71037 h 103.00468 c 66.2308,0 117.39564,-53.87874 108.93158,-114.71037 v 0 c -1.74518,-12.54187 -5.14062,-24.55193 -9.95561,-35.85998 6.70334,-28.082371 10.84824,-56.713741 12.37578,-85.544741 v 0 c 1.098,-20.7433 -18.23312,-36.6020706 -38.36115,-31.47044965 z"
           id="path924"
           inkscape:connector-curvature="0" />
        <g
           id="g930"
           transform="matrix(0.81817931,0,0,0.81817931,-23.272727,-13.854016)">
          <path
             style="fill:#4a5058"
             d="m 231.399,193.183 c -4.497,0 -8.142,-3.645 -8.142,-8.142 v -12.975 c 0,-4.496 3.644,-8.142 8.142,-8.142 4.497,0 8.142,3.645 8.142,8.142 v 12.975 c -0.001,4.497 -3.645,8.142 -8.142,8.142 z"
             id="path926"
             inkscape:connector-curvature="0" />
          <path
             style="fill:#4a5058"
             d="m 394.4,193.183 c -4.497,0 -8.142,-3.645 -8.142,-8.142 v -12.975 c 0,-4.496 3.644,-8.142 8.142,-8.142 4.497,0 8.142,3.645 8.142,8.142 v 12.975 c -10e-4,4.497 -3.645,8.142 -8.142,8.142 z"
             id="path928"
             inkscape:connector-curvature="0" />
        </g>
        <path
           style="fill:#edbcb9;stroke-width:0.81817931"
           d="m 209.59337,169.32979 v 45.93995 c 0,12.78078 10.36061,23.1422 23.14221,23.1422 12.78077,0 23.1422,-10.36142 23.1422,-23.1422 v -45.93995 z"
           id="path932"
           inkscape:connector-curvature="0" />
        <path
           style="opacity:0.1;stroke-width:0.81817931;enable-background:new"
           d="m 232.73476,217.18182 c -3.67936,0 -6.66162,-2.98226 -6.66162,-6.66161 v -37.99625 c 0,-3.67854 2.98145,-6.66162 6.66162,-6.66162 3.67935,0 6.66161,2.98227 6.66161,6.66162 v 37.99625 c 0,3.67935 -2.98144,6.66161 -6.66161,6.66161 z"
           id="path934"
           inkscape:connector-curvature="0" />
        <path
           style="fill:#f7da70;stroke-width:0.81817931"
           d="m 271.47064,202.06432 c -30.02309,0 -38.73506,-21.39784 -38.73506,-30.55736 0,9.15952 -8.71198,30.55736 -38.73507,30.55736 l -18.5743,-53.62592 h 114.61792 z"
           id="path936"
           inkscape:connector-curvature="0" />
        <path
           style="fill:#f4b759;stroke-width:0.81817931"
           d="m 347.39113,34.646839 -0.003,8.1e-4 c -12.60896,3.21545 -24.89638,7.58044 -36.70843,13.04015 -5.54808,2.56499 -7.07398,9.74206 -3.04936,14.34186 v 0 c 10.79752,12.33896 23.55948,22.8092 37.77043,30.98772 5.29771,3.04936 12.03951,0.14973 13.46969,-5.79271 l 8.2e-4,-0.004 c 3.04608,-12.64987 4.92707,-25.55337 5.61516,-38.54851 0.49091,-9.24379 -8.12452,-16.31286 -17.09504,-14.02523 z"
           id="path938"
           inkscape:connector-curvature="0" />
        <path
           style="fill:#7d7060;stroke-width:0.81817931"
           d="m 108.24796,0.97466935 -0.008,-0.002 C 95.595813,-2.2517706 83.269943,2.8111194 76.12233,12.161269 c 4.956533,22.49093 24.99456,39.32252 48.97539,39.32252 20.4553,0 38.03961,-12.2506 45.84668,-29.80873 C 150.55701,13.340269 129.60916,6.4209294 108.24814,0.97430935 Z"
           id="path940"
           inkscape:connector-curvature="0" />
        <path
           style="fill:#f4b759;stroke-width:0.81817931"
           d="m 100.98416,48.672069 v 0 c 0.68809,12.99432 2.56745,25.89701 5.61517,38.54851 l 8.1e-4,0.004 c 1.431,5.94244 8.17198,8.84207 13.46969,5.79271 v 0 c 14.21177,-8.1777 26.97374,-18.64794 37.77125,-30.98772 v 0 c 4.02544,-4.5998 2.49954,-11.77687 -3.04936,-14.34186 v 0 c -11.81205,-5.46053 -24.09865,-9.82552 -36.70843,-13.04015 l -0.003,-8.1e-4 c -8.97052,-2.28763 -17.58595,4.78144 -17.09586,14.02523 z"
           id="path942"
           inkscape:connector-curvature="0" />
        <g
           id="g954"
           transform="matrix(0.81817931,0,0,0.81817931,-23.272727,-13.854016)">
          <path
             style="fill:#4a5058"
             d="m 341.211,215.128 -6.589,7.848 c -11.335,13.5 -32.109,13.5 -43.445,0 l -6.589,-7.848 c -3.396,-4.044 -0.521,-10.212 4.759,-10.212 h 47.105 c 5.28,0.001 8.155,6.169 4.759,10.212 z"
             id="path944"
             inkscape:connector-curvature="0" />
          <path
             style="fill:#4a5058"
             d="m 169.953,244.066 c -4.06,0 -7.574,-3.033 -8.072,-7.167 -0.538,-4.464 2.642,-8.52 7.107,-9.059 l 45.475,-5.493 c 4.475,-0.543 8.52,2.642 9.06,7.106 0.538,4.464 -2.643,8.52 -7.107,9.059 l -45.475,5.493 c -0.334,0.041 -0.664,0.061 -0.988,0.061 z"
             id="path946"
             inkscape:connector-curvature="0" />
          <path
             style="fill:#4a5058"
             d="m 188.698,291.914 c -2.414,0 -4.804,-1.068 -6.409,-3.114 -2.777,-3.537 -2.16,-8.655 1.378,-11.432 l 36.028,-28.285 c 3.537,-2.778 8.655,-2.16 11.431,1.376 2.777,3.537 2.16,8.655 -1.376,11.432 l -36.029,28.285 c -1.492,1.171 -3.265,1.738 -5.023,1.738 z"
             id="path948"
             inkscape:connector-curvature="0" />
          <path
             style="fill:#4a5058"
             d="m 455.847,244.066 c -0.327,0 -0.655,-0.02 -0.987,-0.06 l -45.475,-5.493 c -4.464,-0.54 -7.645,-4.595 -7.107,-9.059 0.54,-4.465 4.606,-7.647 9.06,-7.106 l 45.475,5.493 c 4.464,0.54 7.645,4.595 7.107,9.059 -0.5,4.132 -4.013,7.166 -8.073,7.166 z"
             id="path950"
             inkscape:connector-curvature="0" />
          <path
             style="fill:#4a5058"
             d="m 437.101,291.914 c -1.76,0 -3.531,-0.568 -5.023,-1.738 l -36.027,-28.285 c -3.537,-2.777 -4.152,-7.895 -1.376,-11.432 2.778,-3.537 7.894,-4.151 11.432,-1.376 l 36.027,28.285 c 3.537,2.777 4.152,7.895 1.376,11.432 -1.606,2.045 -3.995,3.114 -6.409,3.114 z"
             id="path952"
             inkscape:connector-curvature="0" />
        </g>
      </g>
    </g>
  </g>
</svg>
