<?xml version="1.0" encoding="UTF-8" standalone="no"?>
<!-- Generator: Adobe Illustrator 19.0.0, SVG Export Plug-In . SVG Version: 6.00 Build 0)  -->

<svg
   xmlns:dc="http://purl.org/dc/elements/1.1/"
   xmlns:cc="http://creativecommons.org/ns#"
   xmlns:rdf="http://www.w3.org/1999/02/22-rdf-syntax-ns#"
   xmlns:svg="http://www.w3.org/2000/svg"
   xmlns="http://www.w3.org/2000/svg"
   xmlns:sodipodi="http://sodipodi.sourceforge.net/DTD/sodipodi-0.dtd"
   xmlns:inkscape="http://www.inkscape.org/namespaces/inkscape"
   version="1.1"
   id="Layer_1"
   x="0px"
   y="0px"
   viewBox="0 0 496 496"
   xml:space="preserve"
   width="60"
   height="55"
   sodipodi:docname="lorry.svg"
   style="enable-background:new 0 0 496 496;"
   inkscape:version="0.92.2 (30a58d1, 2017-08-07)"><metadata
     id="metadata2756"><rdf:RDF><cc:Work
         rdf:about=""><dc:format>image/svg+xml</dc:format><dc:type
           rdf:resource="http://purl.org/dc/dcmitype/StillImage" /><dc:title></dc:title></cc:Work></rdf:RDF></metadata><defs
     id="defs2754" /><sodipodi:namedview
     pagecolor="#ffffff"
     bordercolor="#666666"
     borderopacity="1"
     objecttolerance="10"
     gridtolerance="10"
     guidetolerance="10"
     inkscape:pageopacity="0"
     inkscape:pageshadow="2"
     inkscape:window-width="1321"
     inkscape:window-height="747"
     id="namedview2752"
     showgrid="false"
     inkscape:zoom="10.781818"
     inkscape:cx="35.951538"
     inkscape:cy="23.984909"
     inkscape:window-x="45"
     inkscape:window-y="21"
     inkscape:window-maximized="1"
     inkscape:current-layer="Layer_1" /><g
     id="g3045"><path
       id="path2483"
       d="M292,334.8c0,4-3.2,8-8,8H44c-4,0-8-3.2-8-8v-20c0-4,3.2-8,8-8h240c4,0,8,3.2,8,8V334.8z"
       style="fill:#515150;" /><path
       id="path2485"
       d="M366.4,318.8c0,4-3.2,7.2-7.2,7.2h-344c-4,0-7.2-3.2-7.2-7.2v-180c0-4,3.2-7.2,7.2-7.2h344  c4,0,7.2,3.2,7.2,7.2V318.8z"
       style="fill:#B1B2B1;" /><path
       id="path2487"
       d="M358.4,152.4h-344c-4,0-7.2,3.2-7.2,7.2v159.2c0,4,3.2,7.2,7.2,7.2h344c4,0,7.2-3.2,7.2-7.2V159.6  C366.4,155.6,363.2,152.4,358.4,152.4z"
       style="fill:#A5A5A5;" /><path
       id="path2489"
       d="M7.2,254.8v64c0,4,3.2,7.2,7.2,7.2h344c4,0,7.2-3.2,7.2-7.2v-64H7.2z"
       style="fill:#8E8E8E;" /><path
       id="path2491"
       d="M488,313.2c0,4-3.2,7.2-7.2,7.2H379.2c-4,0-7.2-3.2-7.2-7.2V152.4c0-4,0.8-12,4-12l98.4,4.8  c4,0,12.8,32,12.8,36v132H488z"
       style="fill:#66DD19;" /><path
       id="path2493"
       d="M488,313.2c0,4-3.2,7.2-7.2,7.2H379.2c-4,0-7.2-3.2-7.2-7.2L400,162c0-4,0.8-12,4-12l70.4-4.8  c4,0,12.8,32,12.8,36v132H488z"
       style="fill:#59CE0D;" /><path
       id="path2495"
       d="M372,254.8v57.6c0,4,3.2,7.2,7.2,7.2h101.6c4,0,7.2-3.2,7.2-7.2v-57.6H372z"
       style="fill:#4DB708;" /><path
       id="path2497"
       d="M496,322c0,4-3.2,7.2-7.2,7.2H7.2c-4,0-7.2-3.2-7.2-7.2l0,0c0-4,3.2-7.2,7.2-7.2h482.4  C492.8,315.6,496,318.8,496,322L496,322z"
       style="fill:#8E8E8E;" /><path
       id="path2499"
       d="M24.8,330c0-20,16-36,36-36s36,16,36,36" /><path
       id="path2501"
       d="M98.4,330h-3.2c0-19.2-15.2-34.4-34.4-34.4S26.4,310.8,26.4,330h-3.2c0-20.8,16.8-37.6,37.6-37.6  S98.4,309.2,98.4,330z"
       style="fill:#8E8E8E;" /><circle
       id="circle2503"
       r="32.8"
       cy="331.6"
       cx="60.8"
       style="fill:#203547;" /><path
       id="path2505"
       d="M84,308.4c12.8,12.8,12.8,33.6,0,46.4s-33.6,12.8-46.4,0"
       style="fill:#122130;" /><circle
       id="circle2507"
       r="20.8"
       cy="331.6"
       cx="60.8"
       style="fill:#FFA300;" /><path
       id="path2509"
       d="M75.2,317.2c8,8,8,20.8,0,28.8s-20.8,8-28.8,0"
       style="fill:#FF8500;" /><circle
       id="circle2511"
       r="17.6"
       cy="331.6"
       cx="60.8"
       style="fill:#CED8DD;" /><path
       id="path2513"
       d="M73.6,318.8c7.2,7.2,7.2,18.4,0,25.6c-7.2,7.2-18.4,7.2-25.6,0"
       style="fill:#B2BBC1;" /><path
       id="path2515"
       d="M68.8,331.6c0,4.8-4,9.6-8,9.6c-4.8,0-8-4.8-8-9.6  c0-4.8,4-8,8-8C65.6,323.6,68.8,326.8,68.8,331.6z"
       style="opacity:0.2;fill:#888F91;enable-background:new    ;" /><circle
       id="circle2517"
       r="8"
       cy="331.6"
       cx="60.8"
       style="fill:#E7EFF2;" /><path
       id="path2519"
       d="M60.8,323.6c4.8,0,8,4,8,8c0,4.8-4,8-8,8"
       style="fill:#DAE6EA;" /><path
       id="path2521"
       d="M60.8,314c-0.8,0-1.6,0-2.4,0c0,2.4,1.6,4.8,2.4,4.8s2.4-1.6,2.4-4.8C62.4,314,61.6,314,60.8,314z"
       style="fill:#666E70;" /><path
       id="path2523"
       d="M60.8,318c0.8,0,2.4-1.6,2.4-4.8c-0.8,0-1.6,0-2.4,0"
       style="fill:#535A5B;" /><path
       id="path2525"
       d="M58.4,349.2c1.6,0,3.2,0,4.8,0c0-2.4-1.6-4.8-2.4-4.8S58.4,346.8,58.4,349.2z"
       style="fill:#666E70;" /><path
       id="path2527"
       d="M63.2,349.2c0-2.4-1.6-4.8-2.4-4.8"
       style="fill:#535A5B;" /><path
       id="path2529"
       d="M46.4,321.2c2.4,1.6,4,2.4,4.8,1.6s0-2.4-1.6-4.8C48.8,318,47.2,319.6,46.4,321.2z"
       style="fill:#666E70;" /><path
       id="path2531"
       d="M51.2,322c0.8-0.8,0-2.4-1.6-4.8"
       style="fill:#535A5B;" /><path
       id="path2533"
       d="M75.2,342.8c-2.4-1.6-4-2.4-4.8-1.6s0,2.4,1.6,4.8c0.8-0.8,1.6-0.8,1.6-1.6  C73.6,343.6,74.4,342.8,75.2,342.8z"
       style="fill:#666E70;" /><path
       id="path2535"
       d="M73.6,344.4c0.8-0.8,0.8-1.6,1.6-1.6c-2.4-1.6-4-2.4-4.8-1.6"
       style="fill:#535A5B;" /><path
       id="path2537"
       d="M43.2,334c2.4,0,4.8-1.6,4.8-2.4s-1.6-2.4-4.8-2.4c0,0.8,0,1.6,0,2.4S42.4,333.2,43.2,334z"
       style="fill:#666E70;" /><path
       id="path2539"
       d="M47.2,331.6c0-0.8-1.6-2.4-4.8-2.4c0,0.8,0,1.6,0,2.4"
       style="fill:#535A5B;" /><path
       id="path2541"
       d="M73.6,331.6c0,0.8,1.6,2.4,4.8,2.4c0-1.6,0-3.2,0-4.8C76,330,73.6,330.8,73.6,331.6z"
       style="fill:#666E70;" /><path
       id="path2543"
       d="M78.4,329.2c-2.4,0-4.8,1.6-4.8,2.4"
       style="fill:#535A5B;" /><path
       id="path2545"
       d="M46.4,342.8c0.8,1.6,2.4,2.4,3.2,3.2c1.6-2.4,2.4-4,1.6-4.8C50.4,340.4,48.8,341.2,46.4,342.8z"
       style="fill:#666E70;" /><path
       id="path2547"
       d="M49.6,346c1.6-2.4,2.4-4,1.6-4.8"
       style="fill:#535A5B;" /><path
       id="path2549"
       d="M71.2,317.2c-1.6,2.4-2.4,4-1.6,4.8s3.2,0,4.8-1.6C73.6,319.6,72.8,318,71.2,317.2z"
       style="fill:#666E70;" /><path
       id="path2551"
       d="M71.2,317.2c-1.6,2.4-2.4,4-1.6,4.8"
       style="fill:#535A5B;" /><path
       id="path2553"
       d="M108.8,330c0-20,16-36,36-36s36,16,36,36" /><path
       id="path2555"
       d="M183.2,330H180c0-19.2-15.2-34.4-34.4-34.4s-34.4,15.2-34.4,34.4H108c0-20.8,16.8-37.6,37.6-37.6  S183.2,309.2,183.2,330z"
       style="fill:#8E8E8E;" /><circle
       id="circle2557"
       r="32.8"
       cy="331.6"
       cx="145.6"
       style="fill:#203547;" /><path
       id="path2559"
       d="M168,308.4c12.8,12.8,12.8,33.6,0,46.4s-33.6,12.8-46.4,0"
       style="fill:#122130;" /><circle
       id="circle2561"
       r="20.8"
       cy="331.6"
       cx="145.6"
       style="fill:#FFA300;" /><path
       id="path2563"
       d="M160,317.2c8,8,8,20.8,0,28.8s-20.8,8-28.8,0"
       style="fill:#FF8500;" /><circle
       id="circle2565"
       r="17.6"
       cy="331.6"
       cx="145.6"
       style="fill:#CED8DD;" /><path
       id="path2567"
       d="M157.6,318.8c7.2,7.2,7.2,18.4,0,25.6s-18.4,7.2-25.6,0"
       style="fill:#B2BBC1;" /><path
       id="path2569"
       d="M153.6,331.6c0,4.8-4,9.6-8,9.6s-8-4.8-8-9.6c0-4.8,4-8,8-8  S153.6,326.8,153.6,331.6z"
       style="opacity:0.2;fill:#888F91;enable-background:new    ;" /><circle
       id="circle2571"
       r="8"
       cy="331.6"
       cx="145.6"
       style="fill:#E7EFF2;" /><path
       id="path2573"
       d="M145.6,323.6c4.8,0,8,4,8,8c0,4.8-4,8-8,8"
       style="fill:#DAE6EA;" /><path
       id="path2575"
       d="M145.6,314c-0.8,0-1.6,0-2.4,0c0,2.4,1.6,4.8,2.4,4.8c0.8,0,2.4-1.6,2.4-4.8  C147.2,314,146.4,314,145.6,314z"
       style="fill:#666E70;" /><path
       id="path2577"
       d="M145.6,318c0.8,0,2.4-1.6,2.4-4.8c-0.8,0-1.6,0-2.4,0"
       style="fill:#535A5B;" /><path
       id="path2579"
       d="M143.2,349.2c1.6,0,3.2,0,4.8,0c0-2.4-1.6-4.8-2.4-4.8C144,345.2,143.2,346.8,143.2,349.2z"
       style="fill:#666E70;" /><path
       id="path2581"
       d="M148,349.2c0-2.4-1.6-4.8-2.4-4.8"
       style="fill:#535A5B;" /><path
       id="path2583"
       d="M131.2,321.2c2.4,1.6,4,2.4,4.8,1.6s0-2.4-1.6-4.8C132.8,318,132,319.6,131.2,321.2z"
       style="fill:#666E70;" /><path
       id="path2585"
       d="M136,322c0.8-0.8,0-2.4-1.6-4.8"
       style="fill:#535A5B;" /><path
       id="path2587"
       d="M159.2,342.8c-2.4-1.6-4-2.4-4.8-1.6s0,2.4,1.6,4.8c0.8-0.8,1.6-0.8,1.6-1.6S159.2,342.8,159.2,342.8  z"
       style="fill:#666E70;" /><path
       id="path2589"
       d="M157.6,344.4c0.8-0.8,0.8-1.6,1.6-1.6c-2.4-1.6-4-2.4-4.8-1.6"
       style="fill:#535A5B;" /><path
       id="path2591"
       d="M127.2,334c2.4,0,4.8-1.6,4.8-2.4s-1.6-2.4-4.8-2.4c0,0.8,0,1.6,0,2.4S127.2,333.2,127.2,334z"
       style="fill:#666E70;" /><path
       id="path2593"
       d="M132,331.6c0-0.8-1.6-2.4-4.8-2.4c0,0.8,0,1.6,0,2.4"
       style="fill:#535A5B;" /><path
       id="path2595"
       d="M158.4,331.6c0,0.8,1.6,2.4,4,2.4c0-1.6,0-3.2,0-4.8C160.8,330,158.4,330.8,158.4,331.6z"
       style="fill:#666E70;" /><path
       id="path2597"
       d="M163.2,329.2c-2.4,0-4,1.6-4,2.4"
       style="fill:#535A5B;" /><path
       id="path2599"
       d="M131.2,342.8c0.8,1.6,2.4,2.4,3.2,3.2c1.6-2.4,2.4-4,1.6-4.8C135.2,340.4,132.8,341.2,131.2,342.8z"
       style="fill:#666E70;" /><path
       id="path2601"
       d="M134.4,346c1.6-2.4,2.4-4,1.6-4.8"
       style="fill:#535A5B;" /><path
       id="path2603"
       d="M156,317.2c-1.6,2.4-2.4,4-1.6,4.8c0.8,0.8,2.4,0,4.8-1.6C158.4,319.6,157.6,318,156,317.2z"
       style="fill:#666E70;" /><path
       id="path2605"
       d="M156,317.2c-1.6,2.4-2.4,4-1.6,4.8"
       style="fill:#535A5B;" /><path
       id="path2607"
       d="M193.6,330c0-20,16-36,36-36s36,16,36,36" /><path
       id="path2609"
       d="M267.2,330H264c0-19.2-15.2-34.4-34.4-34.4s-34.4,15.2-34.4,34.4H192c0-20.8,16.8-37.6,37.6-37.6  S267.2,309.2,267.2,330z"
       style="fill:#8E8E8E;" /><circle
       id="circle2611"
       r="32.8"
       cy="331.6"
       cx="229.6"
       style="fill:#203547;" /><path
       id="path2613"
       d="M252.8,308.4c12.8,12.8,12.8,33.6,0,46.4c-12.8,12.8-33.6,12.8-46.4,0"
       style="fill:#122130;" /><circle
       id="circle2615"
       r="20.8"
       cy="331.6"
       cx="229.6"
       style="fill:#FFA300;" /><path
       id="path2617"
       d="M244.8,317.2c8,8,8,20.8,0,28.8c-8,8-20.8,8-28.8,0"
       style="fill:#FF8500;" /><circle
       id="circle2619"
       r="17.6"
       cy="331.6"
       cx="229.6"
       style="fill:#CED8DD;" /><path
       id="path2621"
       d="M242.4,318.8c7.2,7.2,7.2,18.4,0,25.6c-7.2,7.2-18.4,7.2-25.6,0"
       style="fill:#B2BBC1;" /><path
       id="path2623"
       d="M238.4,331.6c0,4.8-4,9.6-8,9.6c-4.8,0-8-4.8-8-9.6  c0-4.8,4-8,8-8S238.4,326.8,238.4,331.6z"
       style="opacity:0.2;fill:#888F91;enable-background:new    ;" /><circle
       id="circle2625"
       r="8"
       cy="331.6"
       cx="229.6"
       style="fill:#E7EFF2;" /><path
       id="path2627"
       d="M229.6,323.6c4.8,0,8,4,8,8c0,4.8-4,8-8,8"
       style="fill:#DAE6EA;" /><path
       id="path2629"
       d="M229.6,314c-0.8,0-1.6,0-2.4,0c0,2.4,1.6,4.8,2.4,4.8c0.8,0,2.4-1.6,2.4-4.8  C231.2,314,230.4,314,229.6,314z"
       style="fill:#666E70;" /><path
       id="path2631"
       d="M229.6,318c0.8,0,2.4-1.6,2.4-4.8c-0.8,0-1.6,0-2.4,0"
       style="fill:#535A5B;" /><path
       id="path2633"
       d="M227.2,349.2c1.6,0,3.2,0,4.8,0c0-2.4-1.6-4.8-2.4-4.8C228.8,345.2,228,346.8,227.2,349.2z"
       style="fill:#666E70;" /><path
       id="path2635"
       d="M232,349.2c0-2.4-1.6-4.8-2.4-4.8"
       style="fill:#535A5B;" /><path
       id="path2637"
       d="M216,321.2c2.4,1.6,4,2.4,4.8,1.6s0-2.4-1.6-4.8C217.6,318,216.8,319.6,216,321.2z"
       style="fill:#666E70;" /><path
       id="path2639"
       d="M220.8,322c0.8-0.8,0-2.4-1.6-4.8"
       style="fill:#535A5B;" /><path
       id="path2641"
       d="M244,342.8c-2.4-1.6-4-2.4-4.8-1.6s0,2.4,1.6,4.8c0.8-0.8,1.6-0.8,1.6-1.6  C243.2,343.6,244,342.8,244,342.8z"
       style="fill:#666E70;" /><path
       id="path2643"
       d="M242.4,344.4c0.8-0.8,0.8-1.6,1.6-1.6c-2.4-1.6-4-2.4-4.8-1.6"
       style="fill:#535A5B;" /><path
       id="path2645"
       d="M212,334c2.4,0,4.8-1.6,4.8-2.4s-1.6-2.4-4.8-2.4c0,0.8,0,1.6,0,2.4S212,333.2,212,334z"
       style="fill:#666E70;" /><path
       id="path2647"
       d="M216.8,331.6c0-0.8-1.6-2.4-4.8-2.4c0,0.8,0,1.6,0,2.4"
       style="fill:#535A5B;" /><path
       id="path2649"
       d="M243.2,331.6c0,0.8,1.6,2.4,4,2.4c0-1.6,0-3.2,0-4.8C244.8,330,243.2,330.8,243.2,331.6z"
       style="fill:#666E70;" /><path
       id="path2651"
       d="M248,329.2c-2.4,0-4,1.6-4,2.4"
       style="fill:#535A5B;" /><path
       id="path2653"
       d="M216,342.8c0.8,1.6,2.4,2.4,3.2,3.2c1.6-2.4,2.4-4,1.6-4.8C220,340.4,217.6,341.2,216,342.8z"
       style="fill:#666E70;" /><path
       id="path2655"
       d="M219.2,346c1.6-2.4,2.4-4,1.6-4.8"
       style="fill:#535A5B;" /><path
       id="path2657"
       d="M240.8,317.2c-1.6,2.4-2.4,4-1.6,4.8c0.8,0.8,2.4,0,4.8-1.6C243.2,319.6,242.4,318,240.8,317.2z"
       style="fill:#666E70;" /><path
       id="path2659"
       d="M240.8,317.2c-1.6,2.4-2.4,4-1.6,4.8"
       style="fill:#535A5B;" /><path
       id="path2661"
       d="M395.2,330c0-20,16-36,36-36s36,16,36,36" /><path
       id="path2663"
       d="M468.8,330h-3.2c0-19.2-15.2-34.4-34.4-34.4c-19.2,0-34.4,15.2-34.4,34.4h-3.2  c0-20.8,16.8-37.6,37.6-37.6S468.8,309.2,468.8,330z"
       style="fill:#8E8E8E;" /><circle
       id="circle2665"
       r="32.8"
       cy="331.6"
       cx="431.2"
       style="fill:#203547;" /><path
       id="path2667"
       d="M454.4,308.4c12.8,12.8,12.8,33.6,0,46.4s-33.6,12.8-46.4,0"
       style="fill:#122130;" /><circle
       id="circle2669"
       r="20.8"
       cy="331.6"
       cx="431.2"
       style="fill:#FFA300;" /><path
       id="path2671"
       d="M446.4,317.2c8,8,8,20.8,0,28.8s-20.8,8-28.8,0"
       style="fill:#FF8500;" /><path
       id="path2673"
       d="M449.6,331.6c0,9.6-8,17.6-17.6,17.6s-17.6-8-17.6-17.6s8-17.6,17.6-17.6S449.6,322,449.6,331.6z"
       style="fill:#CED8DD;" /><path
       id="path2675"
       d="M444,318.8c7.2,7.2,7.2,18.4,0,25.6s-18.4,7.2-25.6,0"
       style="fill:#B2BBC1;" /><path
       id="path2677"
       d="M440,331.6c0,4.8-4,9.6-8,9.6c-4.8,0-8-4.8-8-9.6  c0-4.8,4-8,8-8S440,326.8,440,331.6z"
       style="opacity:0.2;fill:#888F91;enable-background:new    ;" /><circle
       id="circle2679"
       r="8"
       cy="331.6"
       cx="431.2"
       style="fill:#E7EFF2;" /><path
       id="path2681"
       d="M431.2,323.6c4.8,0,8,4,8,8c0,4.8-4,8-8,8"
       style="fill:#DAE6EA;" /><path
       id="path2683"
       d="M431.2,314c-0.8,0-1.6,0-2.4,0c0,2.4,1.6,4.8,2.4,4.8s2.4-1.6,2.4-4.8C432.8,314,432,314,431.2,314z"
       style="fill:#666E70;" /><path
       id="path2685"
       d="M431.2,318c0.8,0,2.4-1.6,2.4-4.8c-0.8,0-1.6,0-2.4,0"
       style="fill:#535A5B;" /><path
       id="path2687"
       d="M428.8,349.2c1.6,0,3.2,0,4.8,0c0-2.4-1.6-4.8-2.4-4.8S429.6,346.8,428.8,349.2z"
       style="fill:#666E70;" /><path
       id="path2689"
       d="M433.6,349.2c0-2.4-1.6-4.8-2.4-4.8"
       style="fill:#535A5B;" /><path
       id="path2691"
       d="M417.6,321.2c2.4,1.6,4,2.4,4.8,1.6s0-2.4-1.6-4.8C419.2,318,418.4,319.6,417.6,321.2z"
       style="fill:#666E70;" /><path
       id="path2693"
       d="M422.4,322c0.8-0.8,0-2.4-1.6-4.8"
       style="fill:#535A5B;" /><path
       id="path2695"
       d="M445.6,342.8c-2.4-1.6-4-2.4-4.8-1.6s0,2.4,1.6,4.8c0.8-0.8,1.6-0.8,1.6-1.6S445.6,342.8,445.6,342.8  z"
       style="fill:#666E70;" /><path
       id="path2697"
       d="M444,344.4c0.8-0.8,0.8-1.6,1.6-1.6c-2.4-1.6-4-2.4-4.8-1.6"
       style="fill:#535A5B;" /><path
       id="path2699"
       d="M413.6,334c2.4,0,4.8-1.6,4.8-2.4s-1.6-2.4-4.8-2.4c0,0.8,0,1.6,0,2.4S413.6,333.2,413.6,334z"
       style="fill:#666E70;" /><path
       id="path2701"
       d="M418.4,331.6c0-0.8-1.6-2.4-4.8-2.4c0,0.8,0,1.6,0,2.4"
       style="fill:#535A5B;" /><path
       id="path2703"
       d="M444.8,331.6c0,0.8,1.6,2.4,4,2.4c0-1.6,0-3.2,0-4.8C446.4,330,444.8,330.8,444.8,331.6z"
       style="fill:#666E70;" /><path
       id="path2705"
       d="M449.6,329.2c-2.4,0-4.8,1.6-4.8,2.4"
       style="fill:#535A5B;" /><path
       id="path2707"
       d="M417.6,342.8c0.8,1.6,2.4,2.4,3.2,3.2c1.6-2.4,2.4-4,1.6-4.8C421.6,340.4,419.2,341.2,417.6,342.8z"
       style="fill:#666E70;" /><path
       id="path2709"
       d="M420.8,346c1.6-2.4,2.4-4,1.6-4.8"
       style="fill:#535A5B;" /><path
       id="path2711"
       d="M442.4,317.2c-1.6,2.4-2.4,4-1.6,4.8s2.4,0,4.8-1.6C444.8,319.6,444,318,442.4,317.2z"
       style="fill:#666E70;" /><path
       id="path2713"
       d="M442.4,317.2c-1.6,2.4-2.4,4-1.6,4.8"
       style="fill:#535A5B;" /><g
       id="g2733"><path
         id="path2715"
         d="m 236.21046,162.8 c 0,0.8 0,0.8 0,0 l -203.682784,0.8 c 0,0 -0.527676,0 -0.527676,-0.8 v 0 c 0,0 0,-0.8 0.527676,-0.8 l 203.682784,0.8 c 0,-0.8 0,0 0,0 z"
         style="fill:#ebf0f2;stroke-width:0.81215423"
         inkscape:connector-curvature="0" /><path
         id="path2717"
         d="m 236.21046,178 c 0,0.8 0,0.8 0,0 l -203.682784,0.8 c 0,0 -0.527676,0 -0.527676,-0.8 v 0 c 0,0 0,-0.8 0.527676,-0.8 L 236.21046,178 Z"
         style="fill:#ebf0f2;stroke-width:0.81215423"
         inkscape:connector-curvature="0" /><path
         id="path2719"
         d="m 236.21046,194 c 0,0 0,0.8 0,0 l -203.682784,0.8 c 0,0 -0.527676,0 -0.527676,-0.8 v 0 c 0,0 0,-0.8 0.527676,-0.8 L 236.21046,194 c 0,-0.8 0,-0.8 0,0 z"
         style="fill:#ebf0f2;stroke-width:0.81215423"
         inkscape:connector-curvature="0" /><path
         id="path2721"
         d="m 236.21046,209.2 c 0,0.8 0,0.8 0,0 L 32.527676,210 C 32.527676,210 32,210 32,209.2 v 0 c 0,0 0,-0.8 0.527676,-0.8 l 203.682784,0.8 c 0,-0.8 0,0 0,0 z"
         style="fill:#ebf0f2;stroke-width:0.81215423"
         inkscape:connector-curvature="0" /><path
         id="path2723"
         d="m 236.21046,225.2 v 0 H 32.527676 c 0,0 -0.527676,0 -0.527676,-0.8 v 0 c 0,0 0,-0.8 0.527676,-0.8 l 203.682784,1.6 c 0,-0.8 0,-0.8 0,0 z"
         style="fill:#ebf0f2;stroke-width:0.81215423"
         inkscape:connector-curvature="0" /><path
         id="path2725"
         d="m 236.21046,240.4 c 0,0 0,0.8 0,0 l -203.682784,0.8 c 0,0 -0.527676,0 -0.527676,-0.8 v 0 c 0,0 0,-0.8 0.527676,-0.8 l 203.682784,0.8 c 0,-0.8 0,0 0,0 z"
         style="fill:#ebf0f2;stroke-width:0.81215423"
         inkscape:connector-curvature="0" /><path
         id="path2727"
         d="m 236.21046,255.6 c 0,0.8 0,0.8 0,0 l -203.682784,0.8 c 0,0 -0.527676,0 -0.527676,-0.8 v 0 c 0,0 0,0 0.527676,0 H 236.21046 Z"
         style="fill:#ebf0f2;stroke-width:0.81215423"
         inkscape:connector-curvature="0" /><path
         id="path2729"
         d="m 236.21046,271.6 c 0,0 0,0.8 0,0 L 32.527676,272.4 C 32,272.4 32,271.6 32,271.6 v 0 c 0,0 0,-0.8 0.527676,-0.8 l 203.682784,0.8 c 0,-0.8 0,-0.8 0,0 z"
         style="fill:#ebf0f2;stroke-width:0.81215423"
         inkscape:connector-curvature="0" /><path
         id="path2731"
         d="m 236.21046,286.8 c 0,0.8 0,0.8 0,0 L 32.527676,287.6 C 32,287.6 32,287.6 32,286.8 v 0 c 0,0 0,-0.8 0.527676,-0.8 l 203.682784,0.8 c 0,-0.8 0,0 0,0 z"
         style="fill:#ebf0f2;stroke-width:0.81215423"
         inkscape:connector-curvature="0" /></g><path
       id="path2735"
       d="M454.4,168.4v24c0,4,3.2,8,8,8H488v-19.2c0-1.6-2.4-11.2-5.6-20h-20.8  C457.6,161.2,454.4,164.4,454.4,168.4z"
       style="fill:#51859B;" /><g
       id="g2745"><path
         id="path2737"
         d="M484,163.6l-29.6,29.6c0,1.6,0.8,3.2,1.6,4l29.6-29.6C484.8,166.8,484,165.2,484,163.6z"
         style="fill:#81B6C9;" /><polygon
         id="polygon2739"
         points="473.6,200.4 488,200.4 488,186.8  "
         style="fill:#81B6C9;" /><path
         id="path2741"
         d="M462.4,161.2L462.4,161.2c-4.8,0-8.8,3.2-8.8,8v0.8L462.4,161.2z"
         style="fill:#81B6C9;" /><polygon
         id="polygon2743"
         points="478.4,161.2 466.4,161.2 454.4,173.2 454.4,185.2  "
         style="fill:#81B6C9;" /></g><path
       id="path2747"
       d="M464.8,210.8c0,0.8-0.8,1.6-1.6,1.6h-5.6c-0.8,0-1.6-0.8-1.6-1.6l0,0c0-0.8,0.8-1.6,1.6-1.6h5.6  C464,209.2,464.8,210,464.8,210.8L464.8,210.8z"
       style="fill:#4DB708;" /><path
       id="path2749"
       d="M490.4,286c0,2.4-1.6,4-4,4l0,0c-1.6,0-4-1.6-4-4v-12.8c0-2.4,1.6-4,4-4l0,0c2.4,0,4,1.6,4,4V286z"
       style="fill:#FFDA00;" /></g></svg>